<?xml version="1.0" standalone="yes"?>
<svg xmlns="http://www.w3.org/2000/svg" width="512" height="512">
<path style="fill:#010101; stroke:none;" d="M0 0L0 233L1 233C1.01625 208.458 9.10165 182.565 18.2006 160C45.7493 91.6796 104.046 36.336 174 13C192.649 6.77878 213.21 1.0545 233 1L211 0L164 0L0 0z"/>
<path style="fill:#1769ff; stroke:none;" d="M233 0.424377C186.735 6.51682 144.373 20.0049 106 47.4275C79.4407 66.4078 57.1421 90.735 39.3441 118C24.0053 141.498 13.3866 167.834 6.62654 195C1.35346 216.19 0 237.267 0 259C0 409.578 138.013 529.252 287 510.715C325.225 505.959 362.735 493.268 395 471.997C431.6 447.868 461.8 415.624 482.691 377C541.558 268.167 510.049 126.663 412 51.8843C386.532 32.4609 357.763 18.1229 327 9.29089C297.576 0.84317 263.567 -3.60083 233 0.424377z"/>
<path style="fill:#010101; stroke:none;" d="M279 0L279 1C369.417 1.24905 454.795 73.2281 490.306 152C501.421 176.656 510.925 205.682 511 233L512 233L512 0L279 0z"/>
<path style="fill:#0101ff; stroke:none;" d="M87 62L88 63L87 62M62 87L63 88L62 87M449 87L450 88L449 87z"/>
<path style="fill:#70a2ff; stroke:none;" d="M100 158L100 351L198 351L198 350L101 350L101 215L101 176L100 158z"/>
<path style="fill:#fdfdff; stroke:none;" d="M101 158L101 350L181 350C198.655 350 217.538 350.462 233 340.452C263.446 320.742 270.619 259.989 229 248C235.547 242.566 242.498 238.779 246.676 231C259.968 206.247 248.912 173.918 223 163.453C207.211 157.076 189.677 158 173 158L101 158z"/>
<path style="fill:#70a2ff; stroke:none;" d="M199 158L199 159L205 159L199 158M208 159L208 160L211 160L208 159M213.667 160.333L214.333 160.667L213.667 160.333M217.667 161.333L218.333 161.667L217.667 161.333M220.667 162.333L221.333 162.667L220.667 162.333M223 163L224 164L223 163M225 164L226 165L225 164M227 165L228 166L227 165M229 166L230 167L229 166M231 167L232 168L231 167M234 169L235 170L234 169M295 169L296 170L295 169z"/>
<path style="fill:#fdfdff; stroke:none;" d="M295 188L379 188L379 169L319 169L296.603 170.028L295 188z"/>
<path style="fill:#70a2ff; stroke:none;" d="M235 170L236 171L235 170M236 171L237 172L236 171M241 176L242 177L241 176M242 177L243 178L242 177M243 178L244 179L243 178M244 180L245 181L244 180M245 181L246 182L245 181M246 183L247 184L246 183M247 185L248 186L247 185M248.333 187.667L248.667 188.333L248.333 187.667M295 188L295 189L379 189L353 188L295 188M249 190L250 191L249 190M138 234L139 234L139 192L184 192L150 191L139.028 192.603L138 204L138 234z"/>
<path style="fill:#1769ff; stroke:none;" d="M139 192L139 234C158.302 234 185.081 238.729 202.999 230.481C214.018 225.41 217.562 205.879 207.786 197.638C201.777 192.573 191.503 192.037 184 192.001C169.001 191.928 153.999 192 139 192z"/>
<path style="fill:#70a2ff; stroke:none;" d="M191 192L191 193L195 193L191 192M198.667 193.333L199.333 193.667L198.667 193.333M250.333 193.667L250.667 194.333L250.333 193.667M202 194L203 195L202 194M204 195L205 196L204 195M206 196L207 197L206 196M251 198L251 201L252 201L251 198M210 200L211 201L210 200M211 202L212 203L211 202M212.333 204.667L212.667 205.333L212.333 204.667M332 204L332 205L347 205L332 204M324 205L324 206L327 206L324 205z"/>
<path style="fill:#fdfdff; stroke:none;" d="M408 309C397.214 309 382.545 306.367 372.184 309.318C365.405 311.249 361.361 320.565 354 323.289C338.725 328.943 319.917 322.987 311.479 309C307.911 303.086 307.573 296.53 306 290L410 290C410 264.259 408.07 239.772 387.999 221.09C360.093 195.115 308.044 200.286 284.329 229C273.268 242.391 270.24 260.198 269.09 277C266.827 310.04 282.339 340.774 315 351.254C348.529 362.012 402.381 350.524 408 309z"/>
<path style="fill:#70a2ff; stroke:none;" d="M352 205L352 206L355 206L352 205M320.667 206.333L321.333 206.667L320.667 206.333M358.667 206.333L359.333 206.667L358.667 206.333M316.667 207.333L317.333 207.667L316.667 207.333M362.667 207.333L363.333 207.667L362.667 207.333M213 208L213 216L214 216L213 208M313 208L314 209L313 208M366 208L367 209L366 208M310.667 209.333L311.333 209.667L310.667 209.333M368.667 209.333L369.333 209.667L368.667 209.333M308 210L309 211L308 210M371 210L372 211L371 210M306 211L307 212L306 211M373 211L374 212L373 211M304 212L305 213L304 212M375 212L376 213L375 212M302 213L303 214L302 213M377 213L378 214L377 213M300 214L301 215L300 214M379 214L380 215L379 214M251 215L251 218L252 218L251 215M299 215L300 216L299 215M297 216L298 217L297 216M382 216L383 217L382 216z"/>
<path style="fill:#0101ff; stroke:none;" d="M509 216L510 217L509 216z"/>
<path style="fill:#70a2ff; stroke:none;" d="M296 217L297 218L296 217M383 217L384 218L383 217M212.333 219.667L212.667 220.333L212.333 219.667M293 219L294 220L293 219M386 219L387 220L386 219M292 220L293 221L292 220M387 220L388 221L387 220M250.333 221.667L250.667 222.333L250.333 221.667M291 221L292 222L291 221M388 221L389 222L388 221M211 222L212 223L211 222M290 222L291 223L290 222M389 222L390 223L389 222z"/>
<path style="fill:#0101ff; stroke:none;" d="M1 223L2 224L1 223z"/>
<path style="fill:#70a2ff; stroke:none;" d="M289 223L290 224L289 223M390 223L391 224L390 223M210 224L211 225L210 224M249.333 224.667L249.667 225.333L249.333 224.667M288 224L289 225L288 224M391 224L392 225L391 224M287 225L288 226L287 225M392 225L393 226L392 225M286 226L287 227L286 226M393 226L394 227L393 226M248 227L249 228L248 227M285 227L286 228L285 227M206 228L207 229L206 228M284 228L285 229L284 228M205 229L206 230L205 229M247 229L248 230L247 229M395 229L396 230L395 229M203 230L204 231L203 230M396 230L397 231L396 230M200.667 231.333L201.333 231.667L200.667 231.333M246 231L247 232L246 231M282 231L283 232L282 231M197.667 232.333L198.333 232.667L197.667 232.333M191 233L191 234L195 234L191 233M245 233L246 234L245 233M398 233L399 234L398 233M244 234L245 235L244 234M280 234L281 235L280 234M334 235L334 236L345 236L334 235M279 236L280 237L279 236M329.667 236.333L330.333 236.667L329.667 236.333z"/>
<path style="fill:#1769ff; stroke:none;" d="M308 265L371 265C369.971 241.394 342.4 226.881 322 239.97C313.275 245.568 309.334 255.103 308 265z"/>
<path style="fill:#70a2ff; stroke:none;" d="M348.667 236.333L349.333 236.667L348.667 236.333M400 236L401 237L400 236M278 237L279 238L278 237M326 237L327 238L326 237M352 237L353 238L352 237M241 238L242 239L241 238M324 238L325 239L324 238M354 238L355 239L354 238M401 238L402 239L401 238M240 239L241 240L240 239M277 239L278 240L277 239M322 239L323 240L322 239M356 239L357 240L356 239M358 240L359 241L358 240M402 240L403 241L402 240M237 241L238 242L237 241M276 241L277 242L276 241M319 241L320 242L319 241M359 241L360 242L359 241M236 242L237 243L236 242M318 242L319 243L318 242M403 242L404 243L403 242M317 243L318 244L317 243M233 244L234 245L233 244M275 244L276 245L275 244M316 244L317 245L316 244M404 244L405 245L404 244M231 245L232 246L231 245M315 245L316 246L315 245M230 246L231 247L230 246M274 246L275 247L274 246M229 247L230 248L229 247M365 247L366 248L365 247M405 247L406 248L405 247M231 248L232 249L231 248M313 248L314 249L313 248M366 248L367 249L366 248M233 249L234 250L233 249M273 249L274 250L273 249M235 250L236 251L235 250M367 250L368 251L367 250M406 250L407 251L406 250M237 251L238 252L237 251M311 251L312 252L311 251M272.333 252.667L272.667 253.333L272.333 252.667M368 252L369 253L368 252M240 253L241 254L240 253M407.333 253.667L407.667 254.333L407.333 253.667M241 254L242 255L241 254M310 254L311 255L310 254M369.333 254.667L369.667 255.333L369.333 254.667M271.333 256.667L271.667 257.333L271.333 256.667M309.333 256.667L309.667 257.333L309.333 256.667M408 257L408 260L409 260L408 257M370.333 258.667L370.667 259.333L370.333 258.667M308 259L308 262L309 262L308 259M270 261L270 264L271 264L270 261M249 262L250 263L249 262M371.333 263.667L371.667 264.333L371.333 263.667M409 263L409 268L410 268L409 263M307 264L308 265L307 264M251 265L252 266L251 265M308 265L308 266L371 266L351 265L308 265z"/>
<path style="fill:#1769ff; stroke:none;" d="M139 266L139 317C158.048 317 188.982 322.808 206 312.914C219.807 304.888 221.813 279.942 207.996 270.97C190.992 259.928 158.447 266 139 266z"/>
<path style="fill:#70a2ff; stroke:none;" d="M192 266L192 267L196 267L192 266M199.667 267.333L200.333 267.667L199.667 267.333M252 267L253 268L252 267M269 267L269 274L270 274L269 267M203 268L204 269L203 268M205 269L206 270L205 269M253 269L254 270L253 269M207 270L208 271L207 270M254 271L255 272L254 271M210 272L211 273L210 272M211 273L212 274L211 273M255.333 273.667L255.667 274.333L255.333 273.667M212 274L213 275L212 274M213 275L214 276L213 275M214 277L215 278L214 277M256.333 277.667L256.667 278.333L256.333 277.667z"/>
<path style="fill:#010101; stroke:none;" d="M0 279L0 512L233 512L233 511C144.924 510.757 58.6505 440.98 23.3086 364C15.393 346.759 9.16444 328.566 5.21065 310C3.16112 300.376 3.74146 287.896 0 279z"/>
<path style="fill:#70a2ff; stroke:none;" d="M215 279L216 280L215 279z"/>
<path style="fill:#010101; stroke:none;" d="M511 279C510.932 303.566 502.906 329.415 493.799 352C466.251 420.32 407.954 475.664 338 499C319.315 505.233 298.831 510.945 279 511L279 512L512 512L512 348L512 301L511 279z"/>
<path style="fill:#70a2ff; stroke:none;" d="M410 280L410 289L411 289L410 280M216.333 281.667L216.667 282.333L216.333 281.667M257 281L257 284L258 284L257 281M217 286L217 295L218 295L217 286M269 288L269 294L270 294L269 288M306.333 290.667L306.667 291.333L306.333 290.667M258 292L259 293L258 292z"/>
<path style="fill:#0101ff; stroke:none;" d="M509 295L510 296L509 295z"/>
<path style="fill:#70a2ff; stroke:none;" d="M307 296L307 299L308 299L307 296M216.333 298.667L216.667 299.333L216.333 298.667M270 298L270 301L271 301L270 298M257 300L257 304L258 304L257 300M215.333 301.667L215.667 302.333L215.333 301.667M308.333 301.667L308.667 302.333L308.333 301.667M214 304L215 305L214 304M271.333 304.667L271.667 305.333L271.333 304.667M309.333 304.667L309.667 305.333L309.333 304.667M256.333 306.667L256.667 307.333L256.333 306.667M212 307L213 308L212 307M310 307L311 308L310 307M211 308L212 309L211 308M272.333 308.667L272.667 309.333L272.333 308.667M210 309L211 310L210 309M311 309L312 310L311 309M408 309L409 310L408 309M209 310L210 311L209 310M255 310L256 311L255 310M369 310L370 311L369 310M208 311L209 312L208 311M273.333 311.667L273.667 312.333L273.333 311.667M368 311L369 312L368 311M313 312L314 313L313 312M407.333 312.667L407.667 313.333L407.333 312.667M205 313L206 314L205 313M254 313L255 314L254 313M314 313L315 314L314 313M367 313L368 314L367 313M202.667 314.333L203.333 314.667L202.667 314.333M274.333 314.667L274.667 315.333L274.333 314.667M366 314L367 315L366 314M199.667 315.333L200.333 315.667L199.667 315.333M253 315L254 316L253 315M365 315L366 316L365 315M193 316L193 317L197 317L193 316M406 316L407 317L406 316M275 317L276 318L275 317M318 317L319 318L318 317M363 317L364 318L363 317M252 318L253 319L252 318M319 318L320 319L319 318M362 318L363 319L362 318M405 318L406 319L405 318M276 319L277 320L276 319M361 319L362 320L361 319M322 320L323 321L322 320M359 320L360 321L359 320M404 320L405 321L404 320M250 321L251 322L250 321M277 321L278 322L277 321M324 321L325 322L324 321M358 321L359 322L358 321M326.667 322.333L327.333 322.667L326.667 322.333M355.667 322.333L356.333 322.667L355.667 322.333M403 322L404 323L403 322M249 323L250 324L249 323M278 323L279 324L278 323M329.667 323.333L330.333 323.667L329.667 323.333M353 323L354 324L353 323M333 324L333 325L336 325L333 324M348 324L348 325L351 325L348 324M402 324L403 325L402 324M279 325L280 326L279 325M247 326L248 327L247 326M280 326L281 327L280 326M400 327L401 328L400 327M399 328L400 329L399 328M282 329L283 330L282 329M244 330L245 331L244 330M283 330L284 331L283 330M243 331L244 332L243 331M397 331L398 332L397 331M242 332L243 333L242 332M396 332L397 333L396 332M241 333L242 334L241 333M395 333L396 334L395 333M240 334L241 335L240 334M394 334L395 335L394 334M239 335L240 336L239 335M393 335L394 336L393 335M238 336L239 337L238 336M392 336L393 337L392 336M290 337L291 338L290 337M391 337L392 338L391 337M235 338L236 339L235 338M291 338L292 339L291 338M390 338L391 339L390 338M234 339L235 340L234 339M292 339L293 340L292 339M389 339L390 340L389 339M294 340L295 341L294 340M388 340L389 341L388 340M231 341L232 342L231 341M295 341L296 342L295 341M229 342L230 343L229 342M385 342L386 343L385 342M227 343L228 344L227 343M298 343L299 344L298 343M384 343L385 344L384 343M225 344L226 345L225 344M300 344L301 345L300 344M382 344L383 345L382 344M222.667 345.333L223.333 345.667L222.667 345.333M301 345L302 346L301 345M381 345L382 346L381 345M219.667 346.333L220.333 346.667L219.667 346.333M303 346L304 347L303 346M379 346L380 347L379 346M216.667 347.333L217.333 347.667L216.667 347.333M305 347L306 348L305 347M377 347L378 348L377 347M211.667 348.333L212.333 348.667L211.667 348.333M307 348L308 349L307 348M375 348L376 349L375 348M203 349L203 350L207 350L203 349M310 349L311 350L310 349M373 349L374 350L373 349M312 350L313 351L312 350M370.667 350.333L371.333 350.667L370.667 350.333M315 351L316 352L315 351M367.667 351.333L368.333 351.667L367.667 351.333M318.667 352.333L319.333 352.667L318.667 352.333M364.667 352.333L365.333 352.667L364.667 352.333M322.667 353.333L323.333 353.667L322.667 353.333M359 353L359 354L362 354L359 353M327 354L327 355L330 355L327 354M353 354L353 355L357 355L353 354M335 355L335 356L347 356L335 355z"/>
<path style="fill:#0101ff; stroke:none;" d="M62 424L63 425L62 424M449 424L450 425L449 424M87 449L88 450L87 449M424 449L425 450L424 449M106 464L107 465L106 464M311 506L312 507L311 506M216 509L217 510L216 509M295 509L296 510L295 509z"/>
</svg>
