<?xml version="1.0" standalone="yes"?>
<svg xmlns="http://www.w3.org/2000/svg" width="1000" height="1000">
<path style="fill:#010101; stroke:none;" d="M0 0L0 98L1 98C3.02404 51.5758 51.5754 3.02338 98 1L68 0L0 0z"/>
<path style="fill:#2d3555; stroke:none;" d="M396 0L396 271C401.743 269.155 405.061 263.234 409.09 259.015C414.436 253.416 420.769 248.318 427 243.735C447.084 228.962 471.345 220.354 496 217.286C518.509 214.486 542.619 214.993 565 218.589C581.672 221.269 597.875 226.209 613 233.753C720.735 287.489 712 422.356 712 524L712 686L712 724C712 729.331 712.902 735.772 707.891 739.258C702.392 743.084 691.412 741 685 741L628 741C620.58 741 608.048 743.42 605.434 733.996C603.21 725.981 605 715.297 605 707L605 650L605 498C605 472.522 607.742 445.253 604.424 420C598.423 374.315 586.051 327.163 535 314.475C525.836 312.198 515.438 310.9 506 311.018C459.329 311.607 415.105 340.331 401.438 386C392.547 415.71 396 448.348 396 479L396 637L396 712C396 718.728 398.82 733.687 392.772 738.258C387.756 742.048 376.971 740 371 740L313 740C306.408 740 292.606 742.771 289.603 734.981C287.457 729.411 289 720.912 289 715L289 671L289 519L289 0L158 0C138.722 0 118.13 -2.06317 99 0.286255C70.5667 3.7782 44.806 18.5269 26.159 40C-0.562449 70.7711 0 106.778 0 145L0 251L0 761L0 851C0 894.36 -0.0745525 932.071 31.4244 965.911C63.6597 1000.54 105.518 1000 149 1000L264 1000L687 1000C757.108 1000 827.968 1003.03 898 999.961C910.884 999.396 924.517 994.89 936 989.244C945.889 984.381 954.761 978.488 962.996 971.155C1007.94 931.129 1000 873.233 1000 819L1000 283L1000 149C1000 116.267 1001.99 85.4913 985.127 56C980.243 47.457 973.978 39.0319 966.911 32.1697C925.936 -7.61646 871.322 0 819 0L396 0z"/>
<path style="fill:#010101; stroke:none;" d="M289 0L289 506L289 663L289 712C289 719.097 287.515 728.102 289.318 734.981C291.38 742.849 305.854 740 312 740L371 740C376.831 740 388.859 742.262 393.566 738.258C398.689 733.9 396 719.125 396 713L396 639L396 480C396 449.348 392.547 416.71 401.438 387C415.083 341.404 459.313 311.955 506 311.054C514.755 310.885 524.473 312.255 533 314.235C582.948 325.836 599.749 373.313 604.17 419C606.75 445.664 605 473.195 605 500L605 646L605 707C605 715.562 603.101 726.726 605.434 734.985C607.887 743.671 621.165 741 628 741L686 741C692.175 741 703.594 743.17 708.772 739.258C713.021 736.046 712 729.665 712 725L712 687L712 531C712 437.388 723.743 314.618 640 249.888C629.867 242.055 618.785 235.471 607 230.427C588.623 222.562 569.786 218.745 550 216.83C527.45 214.648 503.217 214.852 481 219.662C459.614 224.292 439.152 233.087 422 246.808C413.235 253.82 405.648 265.85 396 271L396 0L289 0M902 0L902 1C948.45 2.99939 996.975 51.535 999 98L1000 98L1000 0L902 0M232 816L232 868L768 868L768 816L232 816M0 902L0 1000L98 1000L98 999C63.7952 997.509 29.2993 970.21 13.7816 941C7.08407 928.393 5.65193 914.586 0 902M999 902C996.977 948.425 948.424 996.976 902 999L902 1000L1000 1000L1000 932L999 902z"/>
</svg>
