<?xml version="1.0" standalone="yes"?>
<svg xmlns="http://www.w3.org/2000/svg" width="320" height="283">
<path style="fill:#010101; stroke:none;" d="M0 0L0 14L1 14C3.08817 7.85754 8.00125 3.32397 14 1L0 0z"/>
<path style="fill:#017bb7; stroke:none;" d="M14 0.638123C-7.60872 6.88367 0 43.8989 0 61L0 215L0 255C0 261.282 -0.985676 268.498 2.70293 273.996C13.5273 290.131 49.9723 283 67 283L206 283L248 283C254.929 283 263.318 284.26 270 282.197C291.287 275.623 284 238.869 284 222L284 67C284 51.2144 289.788 20.9577 279.606 8.00385C267.85 -6.95404 232.277 0 215 0L77 0L35 0C28.3949 0 20.3899 -1.20874 14 0.638123z"/>
<path style="fill:#010101; stroke:none;" d="M269 0L269 1C290.258 8.0517 284 38.6601 284 56L284 222C284 240.033 291.127 274.66 269 282L269 283L320 283L320 242L317 242L317 235L316 235L314 242L311 242L309 234L308 234L308 242L304 242L304 226C309.169 226.841 310.422 230.378 312 235L313 235C314.431 230.809 315.551 227.392 320 226L320 0L269 0z"/>
<path style="fill:#016767; stroke:none;" d="M11 1L12 2L11 1M277 5L278 6L277 5M278 6L279 7L278 6z"/>
<path style="fill:#2791c4; stroke:none;" d="M61 38L61 39L65 39L61 38M56.6667 39.3333L57.3333 39.6667L56.6667 39.3333z"/>
<path style="fill:#fdfefe; stroke:none;" d="M58 39.5177C27.2835 46.0809 37.2878 93.5954 68 86.9838C98.736 80.367 88.6813 32.9621 58 39.5177z"/>
<path style="fill:#2791c4; stroke:none;" d="M68.6667 39.3333L69.3333 39.6667L68.6667 39.3333M53.6667 40.3333L54.3333 40.6667L53.6667 40.3333M71.6667 40.3333L72.3333 40.6667L71.6667 40.3333M51 41L52 42L51 41M74 41L75 42L74 41M49 42L50 43L49 42M76 42L77 43L76 42M48 43L49 44L48 43M77 43L78 44L77 43M47 44L48 45L47 44M78 44L79 45L78 44M43 48L44 49L43 48M82 48L83 49L82 48M42 49L43 50L42 49M83 49L84 50L83 49M41 51L42 52L41 51M84 51L85 52L84 51M40 53L41 54L40 53M85 53L86 54L85 53M39.3333 55.6667L39.6667 56.3333L39.3333 55.6667M86.3333 55.6667L86.6667 56.3333L86.3333 55.6667M38 59L38 68L39 68L38 59M87 59L87 68L88 68L87 59M39 70L40 71L39 70M86 70L87 71L86 70M40 73L41 74L40 73M85 73L86 74L85 73M41 75L42 76L41 75M84 75L85 76L84 75M42 76L43 77L42 76M83 76L84 77L83 76M43 78L44 79L43 78M82 78L83 79L82 78M44 79L45 80L44 79M81 79L82 80L81 79M45 80L46 81L45 80M80 80L81 81L80 80M46 81L47 82L46 81M79 81L80 82L79 81M47 82L48 83L47 82M78 82L79 83L78 82M50 84L51 85L50 84M75 84L76 85L75 84M52 85L53 86L52 85M73 85L74 86L73 85M54.6667 86.3333L55.3333 86.6667L54.6667 86.3333M70.6667 86.3333L71.3333 86.6667L70.6667 86.3333M57 87L57 88L61 88L57 87M65 87L65 88L69 88L65 87M185 102L185 103L198 103L185 102M179 103L179 104L182 104L179 103z"/>
<path style="fill:#fdfefe; stroke:none;" d="M152 124L151 124L151 106L123 106L111.603 107.028L110 116L110 140L110 241L152 241C152 214.819 146.417 181.067 154.75 156C159.462 141.826 178.612 133.973 190.906 144.394C199.503 151.681 199 163.811 199 174L199 241L241 241L241 172C241 154.542 241.508 136.476 232.073 121C216.832 95.9993 164.166 95.267 152 124z"/>
<path style="fill:#2791c4; stroke:none;" d="M202 103L202 104L206 104L202 103M176.667 104.333L177.333 104.667L176.667 104.333M208.667 104.333L209.333 104.667L208.667 104.333M173 105L174 106L173 105M211.667 105.333L212.333 105.667L211.667 105.333M41 106L41 201C41 211.057 37.1725 230.677 41.6034 239.682C43.158 242.841 48.1237 241.999 51 242C58.1582 242.003 77.7369 245.455 83.3966 240.972C85.7495 239.109 84.9988 234.617 85 232L85 207L85 106L84 106L84 241L42 241L42 147C42 135.318 45.5075 116.742 41 106z"/>
<path style="fill:#fdfefe; stroke:none;" d="M42 106L42 241L84 241L84 106L42 106z"/>
<path style="fill:#2791c4; stroke:none;" d="M110 106L111 107L110 106M170.667 106.333L171.333 106.667L170.667 106.333M214 106L215 107L214 106M168.667 107.333L169.333 107.667L168.667 107.333M216.667 107.333L217.333 107.667L216.667 107.333M167 108L168 109L167 108M218 108L219 109L218 108M165 109L166 110L165 109M220 109L221 110L220 109M163 110L164 111L163 110M222 110L223 111L222 110M162 111L163 112L162 111M223 111L224 112L223 111M161 112L162 113L161 112M224 112L225 113L224 112M158 114L159 115L158 114M157 115L158 116L157 115M156 116L157 117L156 116M229 117L230 118L229 117M230 118L231 119L230 118M154 119L155 120L154 119M231 119L232 120L231 119M153 120L154 121L153 120M232 121L233 122L232 121M151 123L152 124L151 123M233 123L234 124L233 123M234.333 124.667L234.667 125.333L234.333 124.667M235 127L236 128L235 127M236 129L237 130L236 129M237 132L238 133L237 132M238.333 135.667L238.667 136.333L238.333 135.667M239 139L239 142L240 142L239 139M170 140L170 141L173 141L170 140M182.667 140.333L183.333 140.667L182.667 140.333M167 141L168 142L167 141M186 141L187 142L186 141M165 142L166 143L165 142M188 142L189 143L188 142M163 143L164 144L163 143M190 143L191 144L190 143M191 144L192 145L191 144M160 145L161 146L160 145M192 145L193 146L192 145M240 145L240 149L241 149L240 145M193 146L194 147L193 146M158 148L159 149L158 148M194 148L195 149L194 148M157 149L158 150L157 149M195 149L196 150L195 149M156 151L157 152L156 151M196 152L197 153L196 152M155 153L156 154L155 153M197 154L197 157L198 157L197 154M241 154L241 241L199 241L199 242L242 242L242 181L241 154M154.333 156.667L154.667 157.333L154.333 156.667M198 159L198 164L199 164L198 159M153 160L153 163L154 163L153 160M152 168L152 241L153 241L153 191L152 168z"/>
<path style="fill:#fdfefe; stroke:none;" d="M292 226L292 229L296 229L296 242L299 242L299 229L303 229L303 226L292 226M304 226L304 242L308 242L308 234L309 234L311 242L314 242L316 235L317 235L317 242L320 242L320 226C315.079 226.846 314.068 230.509 313 235C310.539 230.388 309.758 226.458 304 226z"/>
<path style="fill:#2791c4; stroke:none;" d="M110 241L110 242L152 242C141.012 237.389 121.957 241 110 241z"/>
<path style="fill:#010101; stroke:none;" d="M0 269L0 283L14 283L14 282L0 269z"/>
<path style="fill:#016767; stroke:none;" d="M11 281L12 282L11 281z"/>
</svg>
