<?xml version="1.0" standalone="yes"?>
<svg xmlns="http://www.w3.org/2000/svg" width="900" height="900">
<path style="fill:#f9f9f9; stroke:none;" d="M0 0L0 900L900 900L900 0L0 0z"/>
<path style="fill:#85d7f3; stroke:none;" d="M428 15L429 16L428 15z"/>
<path style="fill:#79d7bd; stroke:none;" d="M429 15L429 16L439 16L429 15z"/>
<path style="fill:#11c38d; stroke:none;" d="M151 762C144.593 752.905 135.638 745.258 128.17 737C114.134 721.48 101.119 704.534 89.6952 687C37.1853 606.4 11.0203 508.078 20.1698 412C25.5502 355.5 41.2344 299.06 68.3086 249C97.4329 195.149 136.61 147.142 185 109.424C324.286 0.858032 521.482 -12.2896 673 79.2037C712.499 103.055 748.033 133.041 778.13 168C813.738 209.36 849.499 262.966 862 317C864.072 309.993 857.139 298.647 854.681 292C845.551 267.311 833.323 243.326 819.424 221C759.249 124.343 666.658 59.4157 558 28.7099C363.313 -26.3073 147.23 79.2552 60.2585 259C12.6483 357.396 5.00526 470.487 35.5756 575C50.4174 625.741 75.946 673.203 108.119 715C120.382 730.932 134.482 750.365 151 762z"/>
<path style="fill:#79d7bd; stroke:none;" d="M440 15L441 16L440 15M442 15L443 16L442 15M461 15L462 16L461 15M463 15L463 16L469 16L463 15z"/>
<path style="fill:#85d7f3; stroke:none;" d="M469 15L470 16L469 15z"/>
<path style="fill:#79d7bd; stroke:none;" d="M470 15L471 16L470 15z"/>
<path style="fill:#85d7f3; stroke:none;" d="M414 16L415 17L414 16z"/>
<path style="fill:#79d7bd; stroke:none;" d="M415 16L415 17L419 17L415 16M482 16L482 17L487 17L482 16M403 17L403 18L407 18L403 17M494 17L494 18L497 18L494 17z"/>
<path style="fill:#85d7f3; stroke:none;" d="M394 18L395 19L394 18z"/>
<path style="fill:#79d7bd; stroke:none;" d="M395 18L395 19L398 19L395 18z"/>
<path style="fill:#01afef; stroke:none;" d="M421.715 18.5402C333.043 29.4521 251.832 54.8635 181 111.804C41.5431 223.911 -13.8404 411.884 39.0255 582C54.0182 630.245 78.7299 674.849 109.13 715C136.623 751.312 171.135 783.078 209 808.333C249.809 835.553 294.32 856.453 342 868.373C392.714 881.052 445.957 885.895 498 879.714C566.537 871.575 632.434 848.707 690 810.333C731.806 782.465 769.194 747.648 798.849 707C908.293 556.985 910.898 349.514 802.573 198C776.548 161.6 744.904 129.334 709 102.63C668.559 72.5511 622.474 49.2232 574 35.2909C526.182 21.5471 471.568 12.4052 421.715 18.5402z"/>
<path style="fill:#79d7bd; stroke:none;" d="M503.667 18.3333L504.333 18.6667L503.667 18.3333z"/>
<path style="fill:#85d7f3; stroke:none;" d="M505 18L506 19L505 18z"/>
<path style="fill:#79d7bd; stroke:none;" d="M388.667 19.3333L389.333 19.6667L388.667 19.3333M511.667 19.3333L512.333 19.6667L511.667 19.3333z"/>
<path style="fill:#85d7f3; stroke:none;" d="M513 19L514 20L513 19M381 20L382 21L381 20z"/>
<path style="fill:#79d7bd; stroke:none;" d="M382 20L383 21L382 20M517 20L517 21L520 21L517 20z"/>
<path style="fill:#85d7f3; stroke:none;" d="M375 21L376 22L375 21z"/>
<path style="fill:#79d7bd; stroke:none;" d="M376 21L377 22L376 21M523.667 21.3333L524.333 21.6667L523.667 21.3333z"/>
<path style="fill:#85d7f3; stroke:none;" d="M525 21L526 22L525 21z"/>
<path style="fill:#79d7bd; stroke:none;" d="M369 22L369 23L372 23L369 22M529.667 22.3333L530.333 22.6667L529.667 22.3333M364.667 23.3333L365.333 23.6667L364.667 23.3333M534.667 23.3333L535.333 23.6667L534.667 23.3333M360 24L361 25L360 24M539.667 24.3333L540.333 24.6667L539.667 24.3333M355.667 25.3333L356.333 25.6667L355.667 25.3333M544.667 25.3333L545.333 25.6667L544.667 25.3333M351 26L352 27L351 26M548.667 26.3333L549.333 26.6667L548.667 26.3333M347 27L348 28L347 27M553 27L554 28L553 27M342.667 28.3333L343.333 28.6667L342.667 28.3333M557 28L558 29L557 28z"/>
<path style="fill:#85d7f3; stroke:none;" d="M338 29L339 30L338 29z"/>
<path style="fill:#79d7bd; stroke:none;" d="M339 29L340 30L339 29M560.667 29.3333L561.333 29.6667L560.667 29.3333M335 30L336 31L335 30M564.667 30.3333L565.333 30.6667L564.667 30.3333z"/>
<path style="fill:#85d7f3; stroke:none;" d="M331 31L332 32L331 31z"/>
<path style="fill:#79d7bd; stroke:none;" d="M332 31L333 32L332 31M568 31L569 32L568 31z"/>
<path style="fill:#85d7f3; stroke:none;" d="M569 31L570 32L569 31z"/>
<path style="fill:#79d7bd; stroke:none;" d="M328 32L329 33L328 32M571 32L572 33L571 32z"/>
<path style="fill:#85d7f3; stroke:none;" d="M572 32L573 33L572 32M324 33L325 34L324 33z"/>
<path style="fill:#79d7bd; stroke:none;" d="M325 33L326 34L325 33M575 33L576 34L575 33M321.667 34.3333L322.333 34.6667L321.667 34.3333M578 34L579 35L578 34M318 35L319 36L318 35M581 35L582 36L581 35M315 36L316 37L315 36M584.667 36.3333L585.333 36.6667L584.667 36.3333M312 37L313 38L312 37M587.667 37.3333L588.333 37.6667L587.667 37.3333M309 38L310 39L309 38M591 38L592 39L591 38z"/>
<path style="fill:#85d7f3; stroke:none;" d="M306 39L307 40L306 39z"/>
<path style="fill:#79d7bd; stroke:none;" d="M593.667 39.3333L594.333 39.6667L593.667 39.3333M304 40L305 41L304 40M596 40L597 41L596 40M301 41L302 42L301 41M599 41L600 42L599 41M298 42L299 43L298 42z"/>
<path style="fill:#85d7f3; stroke:none;" d="M602 42L603 43L602 42z"/>
<path style="fill:#79d7bd; stroke:none;" d="M295 43L296 44L295 43M604 43L605 44L604 43M293 44L294 45L293 44M607 44L608 45L607 44M290 45L291 46L290 45M609.667 45.3333L610.333 45.6667L609.667 45.3333M288 46L289 47L288 46M612 46L613 47L612 46z"/>
<path style="fill:#85d7f3; stroke:none;" d="M285 47L286 48L285 47z"/>
<path style="fill:#79d7bd; stroke:none;" d="M283 48L284 49L283 48M617 48L618 49L617 48M280 49L281 50L280 49M619 49L620 50L619 49M278 50L279 51L278 50M276 51L277 52L276 51M624 51L625 52L624 51M626 52L627 53L626 52M271 53L272 54L271 53M628 53L629 54L628 53M269 54L270 55L269 54z"/>
<path style="fill:#85d7f3; stroke:none;" d="M631 54L632 55L631 54z"/>
<path style="fill:#79d7bd; stroke:none;" d="M267 55L268 56L267 55M633 55L634 56L633 55M265 56L266 57L265 56M635 56L636 57L635 56M263 57L264 58L263 57M637 57L638 58L637 57M261 58L262 59L261 58M639 58L640 59L639 58M259 59L260 60L259 59M641 59L642 60L641 59M257 60L258 61L257 60M643 60L644 61L643 60M255 61L256 62L255 61M645 61L646 62L645 61M253 62L254 63L253 62M647 62L648 63L647 62M251 63L252 64L251 63M649 63L650 64L649 63M249 64L250 65L249 64M651 64L652 65L651 64M247 65L248 66L247 65M653 65L654 66L653 65M245 66L246 67L245 66M655 66L656 67L655 66M243 67L244 68L243 67M660 69L661 70L660 69M238 70L239 71L238 70M662 70L663 71L662 70M236 71L237 72L236 71z"/>
<path style="fill:#85d7f3; stroke:none;" d="M664 71L665 72L664 71z"/>
<path style="fill:#79d7bd; stroke:none;" d="M234 72L235 73L234 72M667 73L668 74L667 73M231 74L232 75L231 74M669 74L670 75L669 74M229 75L230 76L229 75M671 75L672 76L671 75M672 76L673 77L672 76M226 77L227 78L226 77M674 77L675 78L674 77M224 78L225 79L224 78M677 79L678 80L677 79M221 80L222 81L221 80M679 80L680 81L679 80M219 81L220 82L219 81M218 82L219 83L218 82M682 82L683 83L682 82M216 83L217 84L216 83M685 84L686 85L685 84M213 85L214 86L213 85M688 86L689 87L688 86M210 87L211 88L210 87M690 87L691 88L690 87M691 88L692 89L691 88M207 89L208 90L207 89M693 89L694 90L693 89M694 90L695 91L694 90M204 91L205 92L204 91M697 92L698 93L697 92M201 93L202 94L201 93M200 94L201 95L200 94M700 94L701 95L700 94M701 95L702 96L701 95M197 96L198 97L197 96M704 97L705 98L704 97z"/>
<path style="fill:#85d7f3; stroke:none;" d="M194 98L195 99L194 98z"/>
<path style="fill:#79d7bd; stroke:none;" d="M193 99L194 100L193 99M707 99L708 100L707 99M708 100L709 101L708 100z"/>
<path style="fill:#85d7f3; stroke:none;" d="M190 101L191 102L190 101z"/>
<path style="fill:#79d7bd; stroke:none;" d="M189 102L190 103L189 102M711 102L712 103L711 102M712 103L713 104L712 103z"/>
<path style="fill:#85d7f3; stroke:none;" d="M186 104L187 105L186 104z"/>
<path style="fill:#79d7bd; stroke:none;" d="M185 105L186 106L185 105z"/>
<path style="fill:#85d7f3; stroke:none;" d="M715 105L716 106L715 105z"/>
<path style="fill:#79d7bd; stroke:none;" d="M716 106L717 107L716 106M181 108L182 109L181 108M180 109L181 110L180 109M720 109L721 110L720 109M721 110L722 111L721 110M176 112L177 113L176 112M175 113L176 114L175 113M725 113L726 114L725 113M726 114L727 115L726 114M727 115L728 116L727 115M170 117L171 118L170 117M169 118L170 119L169 118M731 118L732 119L731 118M168 119L169 120L168 119M732 119L733 120L732 119M733 120L734 121L733 120M734 121L735 122L734 121M163 123L164 124L163 123M162 124L163 125L162 124M738 124L739 125L738 124M161 125L162 126L161 125M739 125L740 126L739 125M160 126L161 127L160 126M740 126L741 127L740 126M741 127L742 128L741 127M742 128L743 129L742 128M743 129L744 130L743 129z"/>
<path style="fill:#85d7f3; stroke:none;" d="M152 133L153 134L152 133M151 134L152 135L151 134z"/>
<path style="fill:#79d7bd; stroke:none;" d="M150 135L151 136L150 135M149 136L150 137L149 136M751 136L752 137L751 136M148 137L149 138L148 137M752 137L753 138L752 137M147 138L148 139L147 138M753 138L754 139L753 138M146 139L147 140L146 139M754 139L755 140L754 139M145 140L146 141L145 140M755 140L756 141L755 140M144 141L145 142L144 141M756 141L757 142L756 141M143 142L144 143L143 142M757 142L758 143L757 142M142 143L143 144L142 143M758 143L759 144L758 143M141 144L142 145L141 144M759 144L760 145L759 144M140 145L141 146L140 145M760 145L761 146L760 145M139 146L140 147L139 146M761 146L762 147L761 146M138 147L139 148L138 147M137 148L138 149L137 148M136 149L137 150L136 149M135 150L136 151L135 150M769 155L770 156L769 155M770 156L771 157L770 156M771 157L772 158L771 157M128 158L129 159L128 158M772 158L773 159L772 158M127 159L128 160L127 159M773 159L774 160L773 159M126 160L127 161L126 160M774 160L775 161L774 160M125 161L126 162L125 161z"/>
<path style="fill:#85d7f3; stroke:none;" d="M574 161L575 162L574 161M576.667 161.333L577.333 161.667L576.667 161.333M561 162L561 163L564 163L561 162z"/>
<path style="fill:#f9f9f9; stroke:none;" d="M454 331C375.838 331 303.432 305.743 242 256.6C220.582 239.467 193.666 216.562 184 190C171.966 197.883 167.455 225.746 165.247 239C155.958 294.755 184.968 358.504 239 381L239 382L194 377.102L163 363C166.608 382.433 168.733 400.614 176.862 419C195.453 461.048 239.541 500.249 287 504L287 505L253 511.961L209 505C221.713 559.926 275.955 602.963 332 603C321.34 614.002 304.277 622.27 291 629.85C250.545 652.944 204.124 670.027 157 671C163.39 679.279 175.072 684.745 184 689.989C210.783 705.721 239.966 715.902 270 723.373C425.871 762.151 583.764 674.454 655.742 535C681.247 485.583 697.471 431.384 702.83 376C704.407 359.709 705.001 343.376 705 327C705 319.858 702.535 310.941 704.318 304.015C706.42 295.846 722.724 288.243 729 282.869C746.439 267.937 764.63 251.198 770 228C745.244 235.131 723.61 253.573 696 247L696 246C727.997 235.104 745.56 205.556 751 174C732.134 177.363 713.063 192.214 695 199.189C689.237 201.414 681.286 205.306 675 205.016C666.904 204.643 655.584 189.577 649 184.735C633.153 173.079 615.413 166.239 596 163.428C531.455 154.082 468.906 195.249 452.895 259C446.462 284.614 451.986 305.695 454 331z"/>
<path style="fill:#85d7f3; stroke:none;" d="M587 162L587 163L591 163L587 162M554.667 163.333L555.333 163.667L554.667 163.333M596.667 163.333L597.333 163.667L596.667 163.333M549.667 164.333L550.333 164.667L549.667 164.333M602.667 164.333L603.333 164.667L602.667 164.333M545.667 165.333L546.333 165.667L545.667 165.333M607.667 165.333L608.333 165.667L607.667 165.333z"/>
<path style="fill:#79d7bd; stroke:none;" d="M778 165L779 166L778 165z"/>
<path style="fill:#85d7f3; stroke:none;" d="M542 166L543 167L542 166M611 166L612 167L611 166z"/>
<path style="fill:#79d7bd; stroke:none;" d="M779 166L780 167L779 166M120 167L121 168L120 167z"/>
<path style="fill:#85d7f3; stroke:none;" d="M538 167L539 168L538 167M615 167L616 168L615 167z"/>
<path style="fill:#79d7bd; stroke:none;" d="M780 167L781 168L780 167M119 168L120 169L119 168z"/>
<path style="fill:#85d7f3; stroke:none;" d="M535 168L536 169L535 168M618 168L619 169L618 168M118 169L119 170L118 169M532.667 169.333L533.333 169.667L532.667 169.333M621 169L622 170L621 169M530 170L531 171L530 170M623 170L624 171L623 170M626 171L627 172L626 171z"/>
<path style="fill:#79d7bd; stroke:none;" d="M783 171L784 172L783 171z"/>
<path style="fill:#85d7f3; stroke:none;" d="M525 172L526 173L525 172M628 172L629 173L628 172z"/>
<path style="fill:#79d7bd; stroke:none;" d="M784 172L785 173L784 172M115 173L116 174L115 173z"/>
<path style="fill:#85d7f3; stroke:none;" d="M523 173L524 174L523 173M630 173L631 174L630 173M750 173L751 174L750 173z"/>
<path style="fill:#79d7bd; stroke:none;" d="M785 173L786 174L785 173M114 174L115 175L114 174z"/>
<path style="fill:#85d7f3; stroke:none;" d="M521 174L522 175L521 174M632 174L633 175L632 174M519 175L520 176L519 175M634 175L635 176L634 175M750 175L751 176L750 175M517 176L518 177L517 176M636 176L637 177L636 176M515 177L516 178L515 177M750 177L750 182L751 182L750 177z"/>
<path style="fill:#79d7bd; stroke:none;" d="M788 177L789 178L788 177M111 178L112 179L111 178z"/>
<path style="fill:#85d7f3; stroke:none;" d="M639 178L640 179L639 178z"/>
<path style="fill:#79d7bd; stroke:none;" d="M789 178L790 179L789 178M110 179L111 180L110 179z"/>
<path style="fill:#85d7f3; stroke:none;" d="M641 179L642 180L641 179z"/>
<path style="fill:#79d7bd; stroke:none;" d="M109 180L110 181L109 180z"/>
<path style="fill:#85d7f3; stroke:none;" d="M510 180L511 181L510 180M644 181L645 182L644 181M507 182L508 183L507 182M645 182L646 183L645 182z"/>
<path style="fill:#79d7bd; stroke:none;" d="M792 182L793 183L792 182M107 183L108 184L107 183z"/>
<path style="fill:#85d7f3; stroke:none;" d="M793 183L794 184L793 183z"/>
<path style="fill:#79d7bd; stroke:none;" d="M106 184L107 185L106 184z"/>
<path style="fill:#85d7f3; stroke:none;" d="M504 184L505 185L504 184M648 184L649 185L648 184M501 186L502 187L501 186M749 186L750 187L749 186z"/>
<path style="fill:#79d7bd; stroke:none;" d="M795 186L796 187L795 186M104 187L105 188L104 187z"/>
<path style="fill:#85d7f3; stroke:none;" d="M500 187L501 188L500 187M652 187L653 188L652 187z"/>
<path style="fill:#79d7bd; stroke:none;" d="M796 187L797 188L796 187M103 188L104 189L103 188z"/>
<path style="fill:#85d7f3; stroke:none;" d="M653 188L654 189L653 188M182 189L183 190L182 189M497 189L498 190L497 189M717 189L718 190L717 189M496 190L497 191L496 190M715 190L716 191L715 190z"/>
<path style="fill:#79d7bd; stroke:none;" d="M798 190L799 191L798 190M101 191L102 192L101 191z"/>
<path style="fill:#85d7f3; stroke:none;" d="M181 191L182 192L181 191M495 191L496 192L495 191M657 191L658 192L657 191M713 191L714 192L713 191z"/>
<path style="fill:#79d7bd; stroke:none;" d="M799 191L800 192L799 191M100 192L101 193L100 192z"/>
<path style="fill:#85d7f3; stroke:none;" d="M184 192L185 193L184 192M658 192L659 193L658 192M711 192L712 193L711 192M747 192L748 193L747 192M180 193L181 194L180 193M659 193L660 194L659 193M709 193L710 194L709 193M660 194L661 195L660 194M706 194L707 195L706 194M746 194L747 195L746 194z"/>
<path style="fill:#79d7bd; stroke:none;" d="M801 194L802 195L801 194M98 195L99 196L98 195z"/>
<path style="fill:#85d7f3; stroke:none;" d="M179 195L180 196L179 195M704 195L705 196L704 195M802 195L803 196L802 195z"/>
<path style="fill:#79d7bd; stroke:none;" d="M97 196L98 197L97 196z"/>
<path style="fill:#85d7f3; stroke:none;" d="M489 196L490 197L489 196M745 196L746 197L745 196M178 197L179 198L178 197M488 197L489 198L488 197M699 197L700 198L699 197M487 198L488 199L487 198M744 198L745 199L744 198z"/>
<path style="fill:#79d7bd; stroke:none;" d="M804 198L805 199L804 198M95 199L96 200L95 199z"/>
<path style="fill:#85d7f3; stroke:none;" d="M177 199L178 200L177 199M188 199L189 200L188 199M486 199L487 200L486 199M694 199L695 200L694 199M485 200L486 201L485 200M691 200L692 201L691 200M743 200L744 201L743 200M176 201L177 202L176 201M189 201L190 202L189 201M688 201L689 202L688 201z"/>
<path style="fill:#79d7bd; stroke:none;" d="M806 201L807 202L806 201M93 202L94 203L93 202z"/>
<path style="fill:#85d7f3; stroke:none;" d="M685 202L686 203L685 202M742 202L743 203L742 202M681.667 203.333L682.333 203.667L681.667 203.333M191 204L192 205L191 204M678 204L679 205L678 204M741 204L742 205L741 204z"/>
<path style="fill:#79d7bd; stroke:none;" d="M808 204L809 205L808 204M91 205L92 206L91 205z"/>
<path style="fill:#85d7f3; stroke:none;" d="M673.667 205.333L674.333 205.667L673.667 205.333M90 206L91 207L90 206M174 206L175 207L174 206M740 206L741 207L740 206M193 207L194 208L193 207M479 207L480 208L479 207z"/>
<path style="fill:#79d7bd; stroke:none;" d="M810 207L811 208L810 207M89 208L90 209L89 208z"/>
<path style="fill:#85d7f3; stroke:none;" d="M173 208L174 209L173 208M478 208L479 209L478 208M739 208L740 209L739 208z"/>
<path style="fill:#79d7bd; stroke:none;" d="M811 208L812 209L811 208z"/>
<path style="fill:#85d7f3; stroke:none;" d="M738 210L739 211L738 210z"/>
<path style="fill:#79d7bd; stroke:none;" d="M812 210L813 211L812 210M87 211L88 212L87 211z"/>
<path style="fill:#85d7f3; stroke:none;" d="M172 211L173 212L172 211M196 211L197 212L196 211M86 212L87 213L86 212M475 212L476 213L475 212M474 213L475 214L474 213M736 213L737 214L736 213z"/>
<path style="fill:#79d7bd; stroke:none;" d="M814 213L815 214L814 213M85 214L86 215L85 214z"/>
<path style="fill:#85d7f3; stroke:none;" d="M170.333 216.667L170.667 217.333L170.333 216.667M200 216L201 217L200 216M472 216L473 217L472 216M734 216L735 217L734 216z"/>
<path style="fill:#79d7bd; stroke:none;" d="M816 216L817 217L816 216M83 217L84 218L83 217z"/>
<path style="fill:#85d7f3; stroke:none;" d="M201 217L202 218L201 217M470 219L471 220L470 219M732 219L733 220L732 219z"/>
<path style="fill:#79d7bd; stroke:none;" d="M818 219L819 220L818 219M81 220L82 221L81 220z"/>
<path style="fill:#85d7f3; stroke:none;" d="M169 220L170 221L169 220M731 220L732 221L731 220z"/>
<path style="fill:#79d7bd; stroke:none;" d="M819 221L820 222L819 221M80 222L81 223L80 222z"/>
<path style="fill:#85d7f3; stroke:none;" d="M205 222L206 223L205 222M468 222L469 223L468 222M168 223L169 224L168 223M206 223L207 224L206 223M207 224L208 225L207 224M728 224L729 225L728 224z"/>
<path style="fill:#79d7bd; stroke:none;" d="M821 224L822 225L821 224z"/>
<path style="fill:#85d7f3; stroke:none;" d="M78 225L79 226L78 225M727 225L728 226L727 225M726 226L727 227L726 226z"/>
<path style="fill:#79d7bd; stroke:none;" d="M77 227L78 228L77 227z"/>
<path style="fill:#85d7f3; stroke:none;" d="M167 227L168 228L167 227M465 227L466 228L465 227M725 227L726 228L725 227M770.333 227.667L770.667 228.333L770.333 227.667z"/>
<path style="fill:#79d7bd; stroke:none;" d="M823 227L824 228L823 227z"/>
<path style="fill:#85d7f3; stroke:none;" d="M724 228L725 229L724 228M464 229L465 230L464 229M723 229L724 230L723 229z"/>
<path style="fill:#79d7bd; stroke:none;" d="M824 229L825 230L824 229z"/>
<path style="fill:#85d7f3; stroke:none;" d="M75 230L76 231L75 230M722 230L723 231L722 230M769 230L770 231L769 230M166 231L167 232L166 231M463 231L464 232L463 231M721 231L722 232L721 231z"/>
<path style="fill:#79d7bd; stroke:none;" d="M825 231L826 232L825 231M74 232L75 233L74 232z"/>
<path style="fill:#85d7f3; stroke:none;" d="M759 232L760 233L759 232M462 233L463 234L462 233M757 233L758 234L757 233M768 233L769 234L768 233z"/>
<path style="fill:#79d7bd; stroke:none;" d="M73 234L74 235L73 234z"/>
<path style="fill:#85d7f3; stroke:none;" d="M717 234L718 235L717 234M755 234L756 235L755 234z"/>
<path style="fill:#79d7bd; stroke:none;" d="M827 234L828 235L827 234z"/>
<path style="fill:#85d7f3; stroke:none;" d="M165 235L165 238L166 238L165 235M461 235L462 236L461 235M716 235L717 236L716 235M753 235L754 236L753 235M751 236L752 237L751 236M767 236L768 237L767 236z"/>
<path style="fill:#79d7bd; stroke:none;" d="M828 236L829 237L828 236M71 237L72 238L71 237z"/>
<path style="fill:#85d7f3; stroke:none;" d="M460 237L461 238L460 237M713 237L714 238L713 237M746 238L747 239L746 238M766 238L767 239L766 238z"/>
<path style="fill:#79d7bd; stroke:none;" d="M829 238L830 239L829 238M70 239L71 240L70 239z"/>
<path style="fill:#85d7f3; stroke:none;" d="M459 239L460 240L459 239M710 239L711 240L710 239M744 239L745 240L744 239M708 240L709 241L708 240M741 240L742 241L741 240z"/>
<path style="fill:#79d7bd; stroke:none;" d="M69 241L70 242L69 241z"/>
<path style="fill:#85d7f3; stroke:none;" d="M164 241L164 244L165 244L164 241M706 241L707 242L706 241M739 241L740 242L739 241z"/>
<path style="fill:#79d7bd; stroke:none;" d="M831 241L832 242L831 241z"/>
<path style="fill:#85d7f3; stroke:none;" d="M704 242L705 243L704 242M736 242L737 243L736 242z"/>
<path style="fill:#79d7bd; stroke:none;" d="M68 243L69 244L68 243z"/>
<path style="fill:#85d7f3; stroke:none;" d="M702 243L703 244L702 243M733 243L734 244L733 243z"/>
<path style="fill:#79d7bd; stroke:none;" d="M832 243L833 244L832 243z"/>
<path style="fill:#85d7f3; stroke:none;" d="M227 244L228 245L227 244M457 244L458 245L457 244M700 244L701 245L700 244M729.667 244.333L730.333 244.667L729.667 244.333z"/>
<path style="fill:#79d7bd; stroke:none;" d="M67 245L68 246L67 245z"/>
<path style="fill:#85d7f3; stroke:none;" d="M228 245L229 246L228 245M697 245L698 246L697 245M726 245L727 246L726 245z"/>
<path style="fill:#79d7bd; stroke:none;" d="M833 245L834 246L833 245z"/>
<path style="fill:#85d7f3; stroke:none;" d="M229 246L230 247L229 246M721.667 246.333L722.333 246.667L721.667 246.333M230 247L231 248L230 247M456 247L457 248L456 247M697.667 247.333L698.333 247.667L697.667 247.333M714 247L714 248L717 248L714 247z"/>
<path style="fill:#79d7bd; stroke:none;" d="M834 247L835 248L834 247z"/>
<path style="fill:#85d7f3; stroke:none;" d="M761 248L762 249L761 248z"/>
<path style="fill:#79d7bd; stroke:none;" d="M835 249L836 250L835 249z"/>
<path style="fill:#85d7f3; stroke:none;" d="M163 250L163 255L164 255L163 250M455 250L456 251L455 250M235 251L236 252L235 251M759 251L760 252L759 251z"/>
<path style="fill:#79d7bd; stroke:none;" d="M836 251L837 252L836 251z"/>
<path style="fill:#85d7f3; stroke:none;" d="M63 252L64 253L63 252M236 252L237 253L236 252M454 253L455 254L454 253z"/>
<path style="fill:#79d7bd; stroke:none;" d="M837 253L838 254L837 253z"/>
<path style="fill:#85d7f3; stroke:none;" d="M62 254L63 255L62 254M240 255L241 256L240 255M756 255L757 256L756 255z"/>
<path style="fill:#79d7bd; stroke:none;" d="M838 255L839 256L838 255M61 256L62 257L61 256z"/>
<path style="fill:#85d7f3; stroke:none;" d="M241 256L242 257L241 256M453 256L454 257L453 256M755 256L756 257L755 256M754 257L755 258L754 257z"/>
<path style="fill:#79d7bd; stroke:none;" d="M839 257L840 258L839 257M60 258L61 259L60 258z"/>
<path style="fill:#85d7f3; stroke:none;" d="M245 259L246 260L245 259z"/>
<path style="fill:#79d7bd; stroke:none;" d="M840 259L841 260L840 259z"/>
<path style="fill:#85d7f3; stroke:none;" d="M246 260L247 261L246 260M452 260L453 261L452 260z"/>
<path style="fill:#79d7bd; stroke:none;" d="M841 261L842 262L841 261z"/>
<path style="fill:#85d7f3; stroke:none;" d="M249 262L250 263L249 262M250 263L251 264L250 263z"/>
<path style="fill:#79d7bd; stroke:none;" d="M842 263L843 264L842 263z"/>
<path style="fill:#85d7f3; stroke:none;" d="M451.333 264.667L451.667 265.333L451.333 264.667z"/>
<path style="fill:#79d7bd; stroke:none;" d="M57 265L58 266L57 265z"/>
<path style="fill:#85d7f3; stroke:none;" d="M253 265L254 266L253 265z"/>
<path style="fill:#79d7bd; stroke:none;" d="M843 265L844 266L843 265z"/>
<path style="fill:#85d7f3; stroke:none;" d="M254 266L255 267L254 266z"/>
<path style="fill:#79d7bd; stroke:none;" d="M56 267L57 268L56 267z"/>
<path style="fill:#85d7f3; stroke:none;" d="M745 267L746 268L745 267z"/>
<path style="fill:#79d7bd; stroke:none;" d="M844 267L845 268L844 267z"/>
<path style="fill:#85d7f3; stroke:none;" d="M163 268L163 274L164 274L163 268M257 268L258 269L257 268M744 268L745 269L744 268z"/>
<path style="fill:#79d7bd; stroke:none;" d="M55 269L56 270L55 269z"/>
<path style="fill:#85d7f3; stroke:none;" d="M450.333 269.667L450.667 270.333L450.333 269.667z"/>
<path style="fill:#79d7bd; stroke:none;" d="M845.333 269.667L845.667 270.333L845.333 269.667z"/>
<path style="fill:#85d7f3; stroke:none;" d="M260 270L261 271L260 270M742 270L743 271L742 270z"/>
<path style="fill:#79d7bd; stroke:none;" d="M54 271L55 272L54 271z"/>
<path style="fill:#85d7f3; stroke:none;" d="M263 272L264 273L263 272M740 272L741 273L740 272z"/>
<path style="fill:#79d7bd; stroke:none;" d="M846 272L847 273L846 272M53 273L54 274L53 273z"/>
<path style="fill:#85d7f3; stroke:none;" d="M266 274L267 275L266 274z"/>
<path style="fill:#79d7bd; stroke:none;" d="M847 274L848 275L847 274z"/>
<path style="fill:#85d7f3; stroke:none;" d="M449 275L449 279L450 279L449 275z"/>
<path style="fill:#79d7bd; stroke:none;" d="M52 276L53 277L52 276z"/>
<path style="fill:#85d7f3; stroke:none;" d="M269 276L270 277L269 276M848 276L849 277L848 276z"/>
<path style="fill:#79d7bd; stroke:none;" d="M51 278L52 279L51 278z"/>
<path style="fill:#85d7f3; stroke:none;" d="M272 278L273 279L272 278M732 279L733 280L732 279z"/>
<path style="fill:#79d7bd; stroke:none;" d="M849 279L850 280L849 279M50 280L51 281L50 280z"/>
<path style="fill:#85d7f3; stroke:none;" d="M164 280L164 283L165 283L164 280M275 280L276 281L275 280M731 280L732 281L731 280M277 281L278 282L277 281M730 281L731 282L730 281z"/>
<path style="fill:#79d7bd; stroke:none;" d="M850 281L851 282L850 281z"/>
<path style="fill:#85d7f3; stroke:none;" d="M729 282L730 283L729 282z"/>
<path style="fill:#79d7bd; stroke:none;" d="M49 283L50 284L49 283z"/>
<path style="fill:#85d7f3; stroke:none;" d="M280 283L281 284L280 283M282 284L283 285L282 284z"/>
<path style="fill:#79d7bd; stroke:none;" d="M48 285L49 286L48 285z"/>
<path style="fill:#85d7f3; stroke:none;" d="M725 285L726 286L725 285M165 286L165 289L166 289L165 286M285 286L286 287L285 286M724 286L725 287L724 286z"/>
<path style="fill:#79d7bd; stroke:none;" d="M852 286L853 287L852 286z"/>
<path style="fill:#85d7f3; stroke:none;" d="M287 287L288 288L287 287M448 287L449 288L448 287M723 287L724 288L723 287z"/>
<path style="fill:#79d7bd; stroke:none;" d="M47 288L48 289L47 288z"/>
<path style="fill:#85d7f3; stroke:none;" d="M289 288L290 289L289 288z"/>
<path style="fill:#79d7bd; stroke:none;" d="M853 288L854 289L853 288z"/>
<path style="fill:#85d7f3; stroke:none;" d="M448 289L448 292L449 292L448 289M720 289L721 290L720 289z"/>
<path style="fill:#79d7bd; stroke:none;" d="M46 290L47 291L46 290z"/>
<path style="fill:#85d7f3; stroke:none;" d="M719 290L720 291L719 290M294 291L295 292L294 291z"/>
<path style="fill:#79d7bd; stroke:none;" d="M854 291L855 292L854 291z"/>
<path style="fill:#85d7f3; stroke:none;" d="M166 292L167 293L166 292M296 292L297 293L296 292M716 292L717 293L716 292z"/>
<path style="fill:#79d7bd; stroke:none;" d="M45 293L46 294L45 293z"/>
<path style="fill:#85d7f3; stroke:none;" d="M298 293L299 294L298 293M448 293L449 294L448 293M715 293L716 294L715 293M300 294L301 295L300 294z"/>
<path style="fill:#79d7bd; stroke:none;" d="M855 294L856 295L855 294M44 295L45 296L44 295z"/>
<path style="fill:#85d7f3; stroke:none;" d="M302 295L303 296L302 295M712 295L713 296L712 295M167.333 296.667L167.667 297.333L167.333 296.667M304 296L305 297L304 296z"/>
<path style="fill:#79d7bd; stroke:none;" d="M856 296L857 297L856 296z"/>
<path style="fill:#85d7f3; stroke:none;" d="M306 297L307 298L306 297M709 297L710 298L709 297z"/>
<path style="fill:#79d7bd; stroke:none;" d="M43 298L44 299L43 298z"/>
<path style="fill:#85d7f3; stroke:none;" d="M308 298L309 299L308 298M310 299L311 300L310 299M706 299L707 300L706 299z"/>
<path style="fill:#79d7bd; stroke:none;" d="M857 299L858 300L857 299z"/>
<path style="fill:#85d7f3; stroke:none;" d="M168 300L169 301L168 300M312 300L313 301L312 300z"/>
<path style="fill:#79d7bd; stroke:none;" d="M42 301L43 302L42 301z"/>
<path style="fill:#85d7f3; stroke:none;" d="M314 301L315 302L314 301M704 301L704 315L705 315L704 301z"/>
<path style="fill:#79d7bd; stroke:none;" d="M858.333 301.667L858.667 302.333L858.333 301.667z"/>
<path style="fill:#85d7f3; stroke:none;" d="M316 302L317 303L316 302M318 303L319 304L318 303z"/>
<path style="fill:#79d7bd; stroke:none;" d="M41 304L42 305L41 304z"/>
<path style="fill:#85d7f3; stroke:none;" d="M321 304L322 305L321 304z"/>
<path style="fill:#79d7bd; stroke:none;" d="M859 304L860 305L859 304z"/>
<path style="fill:#85d7f3; stroke:none;" d="M170 305L171 306L170 305M323 305L324 306L323 305M325 306L326 307L325 306M449 306L449 309L450 309L449 306z"/>
<path style="fill:#79d7bd; stroke:none;" d="M40 307L41 308L40 307z"/>
<path style="fill:#85d7f3; stroke:none;" d="M171 307L172 308L171 307z"/>
<path style="fill:#79d7bd; stroke:none;" d="M860 307L861 308L860 307z"/>
<path style="fill:#85d7f3; stroke:none;" d="M330 308L331 309L330 308M39 309L40 310L39 309M172 309L173 310L172 309z"/>
<path style="fill:#79d7bd; stroke:none;" d="M39 310L40 311L39 310z"/>
<path style="fill:#85d7f3; stroke:none;" d="M335 310L336 311L335 310z"/>
<path style="fill:#79d7bd; stroke:none;" d="M861 310L862 311L861 310z"/>
<path style="fill:#85d7f3; stroke:none;" d="M38 312L39 313L38 312M340 312L341 313L340 312M450.333 312.667L450.667 313.333L450.333 312.667z"/>
<path style="fill:#79d7bd; stroke:none;" d="M38 313L39 314L38 313z"/>
<path style="fill:#85d7f3; stroke:none;" d="M343 313L344 314L343 313z"/>
<path style="fill:#79d7bd; stroke:none;" d="M862 313L863 314L862 313z"/>
<path style="fill:#85d7f3; stroke:none;" d="M346 314L347 315L346 314z"/>
<path style="fill:#79d7bd; stroke:none;" d="M37.3333 315.667L37.6667 316.333L37.3333 315.667z"/>
<path style="fill:#85d7f3; stroke:none;" d="M175 316L176 317L175 316M351 316L352 317L351 316M704 316L705 317L704 316z"/>
<path style="fill:#79d7bd; stroke:none;" d="M863.333 316.667L863.667 317.333L863.333 316.667z"/>
<path style="fill:#85d7f3; stroke:none;" d="M354 317L355 318L354 317M451 317L452 318L451 317z"/>
<path style="fill:#79d7bd; stroke:none;" d="M36.3333 318.667L36.6667 319.333L36.3333 318.667z"/>
<path style="fill:#85d7f3; stroke:none;" d="M357.667 318.333L358.333 318.667L357.667 318.333z"/>
<path style="fill:#11c38d; stroke:none;" d="M863.333 318.667L863.667 319.333L863.333 318.667z"/>
<path style="fill:#85d7f3; stroke:none;" d="M361 319L362 320L361 319M364 320L365 321L364 320z"/>
<path style="fill:#79d7bd; stroke:none;" d="M864 320L865 321L864 320z"/>
<path style="fill:#85d7f3; stroke:none;" d="M368 321L369 322L368 321M452.333 321.667L452.667 322.333L452.333 321.667z"/>
<path style="fill:#11c38d; stroke:none;" d="M864 321L865 327L866 327L864 321z"/>
<path style="fill:#79d7bd; stroke:none;" d="M35 322L36 323L35 322z"/>
<path style="fill:#85d7f3; stroke:none;" d="M371.667 322.333L372.333 322.667L371.667 322.333M179 323L180 324L179 323M375.667 323.333L376.333 323.667L375.667 323.333z"/>
<path style="fill:#79d7bd; stroke:none;" d="M865 323L866 324L865 323z"/>
<path style="fill:#85d7f3; stroke:none;" d="M379.667 324.333L380.333 324.667L379.667 324.333z"/>
<path style="fill:#79d7bd; stroke:none;" d="M34 325L35 326L34 325z"/>
<path style="fill:#85d7f3; stroke:none;" d="M180 325L181 326L180 325M384 325L385 326L384 325M389 326L390 327L389 326M453.333 326.667L453.667 327.333L453.333 326.667z"/>
<path style="fill:#79d7bd; stroke:none;" d="M866.333 326.667L866.667 327.333L866.333 326.667z"/>
<path style="fill:#85d7f3; stroke:none;" d="M394.667 327.333L395.333 327.667L394.667 327.333z"/>
<path style="fill:#79d7bd; stroke:none;" d="M33.3333 328.667L33.6667 329.333L33.3333 328.667z"/>
<path style="fill:#85d7f3; stroke:none;" d="M400 328L400 329L403 329L400 328z"/>
<path style="fill:#11c38d; stroke:none;" d="M866.333 328.667L866.667 329.333L866.333 328.667z"/>
<path style="fill:#85d7f3; stroke:none;" d="M408 329L408 330L412 330L408 329M183 330L184 331L183 330M420 330L420 331L454 331L420 330z"/>
<path style="fill:#79d7bd; stroke:none;" d="M867 330L868 331L867 330z"/>
<path style="fill:#11c38d; stroke:none;" d="M867 331L872 354L873 354L867 331z"/>
<path style="fill:#79d7bd; stroke:none;" d="M32.3333 332.667L32.6667 333.333L32.3333 332.667z"/>
<path style="fill:#85d7f3; stroke:none;" d="M185 333L186 334L185 333z"/>
<path style="fill:#79d7bd; stroke:none;" d="M868 333L869 334L868 333M31 336L32 337L31 336z"/>
<path style="fill:#85d7f3; stroke:none;" d="M187 336L188 337L187 336z"/>
<path style="fill:#79d7bd; stroke:none;" d="M869 337L870 338L869 337z"/>
<path style="fill:#85d7f3; stroke:none;" d="M189 339L190 340L189 339z"/>
<path style="fill:#79d7bd; stroke:none;" d="M30 340L31 341L30 340M870 341L871 342L870 341M29.3333 343.667L29.6667 344.333L29.3333 343.667z"/>
<path style="fill:#85d7f3; stroke:none;" d="M192 343L193 344L192 343M193 344L194 345L193 344z"/>
<path style="fill:#79d7bd; stroke:none;" d="M871 345L872 346L871 345z"/>
<path style="fill:#85d7f3; stroke:none;" d="M195 347L196 348L195 347z"/>
<path style="fill:#79d7bd; stroke:none;" d="M28 348L29 349L28 348z"/>
<path style="fill:#85d7f3; stroke:none;" d="M196 348L197 349L196 348M197 349L198 350L197 349z"/>
<path style="fill:#79d7bd; stroke:none;" d="M872 349L873 350L872 349z"/>
<path style="fill:#85d7f3; stroke:none;" d="M704 350L704 357L705 357L704 350z"/>
<path style="fill:#79d7bd; stroke:none;" d="M27.3333 352.667L27.6667 353.333L27.3333 352.667M873.333 353.667L873.667 354.333L873.333 353.667z"/>
<path style="fill:#11c38d; stroke:none;" d="M873 355L873 358L874 358L873 355z"/>
<path style="fill:#85d7f3; stroke:none;" d="M26 356L27 357L26 356z"/>
<path style="fill:#79d7bd; stroke:none;" d="M26 357L27 358L26 357M874.333 357.667L874.667 358.333L874.333 357.667z"/>
<path style="fill:#11c38d; stroke:none;" d="M874 359L874 363L875 363L874 359z"/>
<path style="fill:#79d7bd; stroke:none;" d="M25.3333 361.667L25.6667 362.333L25.3333 361.667z"/>
<path style="fill:#85d7f3; stroke:none;" d="M164 363L165 364L164 363M211 363L212 364L211 363z"/>
<path style="fill:#79d7bd; stroke:none;" d="M875 363L876 364L875 363z"/>
<path style="fill:#85d7f3; stroke:none;" d="M212 364L213 365L212 364z"/>
<path style="fill:#11c38d; stroke:none;" d="M875 364L875 368L876 368L875 364z"/>
<path style="fill:#85d7f3; stroke:none;" d="M163 365L163 369L164 369L163 365M167 365L168 366L167 365z"/>
<path style="fill:#79d7bd; stroke:none;" d="M24.3333 366.667L24.6667 367.333L24.3333 366.667z"/>
<path style="fill:#85d7f3; stroke:none;" d="M170 367L171 368L170 367M216 367L217 368L216 367M703 367L703 371L704 371L703 367M172 368L173 369L172 368M217 368L218 369L217 368z"/>
<path style="fill:#79d7bd; stroke:none;" d="M876.333 368.667L876.667 369.333L876.333 368.667z"/>
<path style="fill:#85d7f3; stroke:none;" d="M220 370L221 371L220 370z"/>
<path style="fill:#11c38d; stroke:none;" d="M876 370L876 374L877 374L876 370z"/>
<path style="fill:#79d7bd; stroke:none;" d="M23 371L23 374L24 374L23 371z"/>
<path style="fill:#85d7f3; stroke:none;" d="M180 372L181 373L180 372M223 372L224 373L223 372M182 373L183 374L182 373z"/>
<path style="fill:#79d7bd; stroke:none;" d="M877.333 373.667L877.667 374.333L877.333 373.667z"/>
<path style="fill:#85d7f3; stroke:none;" d="M185 374L186 375L185 374M226 374L227 375L226 374M164.333 375.667L164.667 376.333L164.333 375.667M188 375L189 376L188 375z"/>
<path style="fill:#11c38d; stroke:none;" d="M877 375L877 380L878 380L877 375z"/>
<path style="fill:#85d7f3; stroke:none;" d="M191.667 376.333L192.333 376.667L191.667 376.333M229 376L230 377L229 376M22 377L23 378L22 377M195.667 377.333L196.333 377.667L195.667 377.333M231 377L232 378L231 377z"/>
<path style="fill:#79d7bd; stroke:none;" d="M22.3333 378.667L22.6667 379.333L22.3333 378.667z"/>
<path style="fill:#85d7f3; stroke:none;" d="M201.667 378.333L202.333 378.667L201.667 378.333M233 378L234 379L233 378M702 378L702 381L703 381L702 378M208 379L208 380L212 380L208 379M235 379L236 380L235 379z"/>
<path style="fill:#79d7bd; stroke:none;" d="M878.333 379.667L878.667 380.333L878.333 379.667z"/>
<path style="fill:#85d7f3; stroke:none;" d="M219 380L219 381L224 381L219 380M236 382L239 382L238 380L236 382M165.333 381.667L165.667 382.333L165.333 381.667z"/>
<path style="fill:#11c38d; stroke:none;" d="M878 381L878 386L879 386L878 381z"/>
<path style="fill:#79d7bd; stroke:none;" d="M21.3333 384.667L21.6667 385.333L21.3333 384.667M879 385L879 388L880 388L879 385z"/>
<path style="fill:#85d7f3; stroke:none;" d="M166 387L167 388L166 387M701 387L701 390L702 390L701 387z"/>
<path style="fill:#11c38d; stroke:none;" d="M879 388L879 393L880 393L879 388z"/>
<path style="fill:#85d7f3; stroke:none;" d="M20 390L21 391L20 390z"/>
<path style="fill:#79d7bd; stroke:none;" d="M20.3333 391.667L20.6667 392.333L20.3333 391.667z"/>
<path style="fill:#85d7f3; stroke:none;" d="M167.333 391.667L167.667 392.333L167.333 391.667z"/>
<path style="fill:#79d7bd; stroke:none;" d="M880 393L880 396L881 396L880 393z"/>
<path style="fill:#85d7f3; stroke:none;" d="M700 394L700 397L701 397L700 394M168 395L169 396L168 395z"/>
<path style="fill:#11c38d; stroke:none;" d="M880 396L880 400L881 400L880 396z"/>
<path style="fill:#79d7bd; stroke:none;" d="M19 398L19 402L20 402L19 398z"/>
<path style="fill:#85d7f3; stroke:none;" d="M169.333 398.667L169.667 399.333L169.333 398.667M699.333 401.667L699.667 402.333L699.333 401.667z"/>
<path style="fill:#11c38d; stroke:none;" d="M880 401L881 402L880 401z"/>
<path style="fill:#85d7f3; stroke:none;" d="M170 402L171 403L170 402z"/>
<path style="fill:#79d7bd; stroke:none;" d="M881 402L881 405L882 405L881 402z"/>
<path style="fill:#85d7f3; stroke:none;" d="M171 405L172 406L171 405z"/>
<path style="fill:#11c38d; stroke:none;" d="M881 405L881 410L882 410L881 405z"/>
<path style="fill:#85d7f3; stroke:none;" d="M698.333 407.667L698.667 408.333L698.333 407.667M18 408L19 409L18 408M172 408L173 409L172 408z"/>
<path style="fill:#79d7bd; stroke:none;" d="M18 409L18 413L19 413L18 409z"/>
<path style="fill:#85d7f3; stroke:none;" d="M173 410L174 411L173 410z"/>
<path style="fill:#11c38d; stroke:none;" d="M881 411L882 412L881 411z"/>
<path style="fill:#79d7bd; stroke:none;" d="M882 411L882 416L883 416L882 411z"/>
<path style="fill:#85d7f3; stroke:none;" d="M174 413L175 414L174 413M697.333 413.667L697.667 414.333L697.333 413.667M175 415L176 416L175 415z"/>
<path style="fill:#11c38d; stroke:none;" d="M882 416L882 424L883 424L882 416z"/>
<path style="fill:#85d7f3; stroke:none;" d="M696.333 418.667L696.667 419.333L696.333 418.667M17 420L18 421L17 420M177 420L178 421L177 420z"/>
<path style="fill:#79d7bd; stroke:none;" d="M17 421L17 428L18 428L17 421z"/>
<path style="fill:#85d7f3; stroke:none;" d="M178 422L179 423L178 422M695.333 423.667L695.667 424.333L695.333 423.667M179 424L180 425L179 424z"/>
<path style="fill:#11c38d; stroke:none;" d="M882 425L883 426L882 425z"/>
<path style="fill:#85d7f3; stroke:none;" d="M180 426L181 427L180 426z"/>
<path style="fill:#79d7bd; stroke:none;" d="M883 426L884 427L883 426z"/>
<path style="fill:#11c38d; stroke:none;" d="M882 427L883 428L882 427z"/>
<path style="fill:#85d7f3; stroke:none;" d="M694 428L695 429L694 428z"/>
<path style="fill:#79d7bd; stroke:none;" d="M883 428L883 435L884 435L883 428z"/>
<path style="fill:#85d7f3; stroke:none;" d="M183 431L184 432L183 431M693.333 432.667L693.667 433.333L693.333 432.667M184 433L185 434L184 433z"/>
<path style="fill:#11c38d; stroke:none;" d="M883 435L884 436L883 435z"/>
<path style="fill:#85d7f3; stroke:none;" d="M692.333 436.667L692.667 437.333L692.333 436.667z"/>
<path style="fill:#79d7bd; stroke:none;" d="M883 436L884 437L883 436z"/>
<path style="fill:#11c38d; stroke:none;" d="M883.333 437.667L883.667 438.333L883.333 437.667z"/>
<path style="fill:#85d7f3; stroke:none;" d="M187 438L188 439L187 438z"/>
<path style="fill:#79d7bd; stroke:none;" d="M883 439L884 440L883 439z"/>
<path style="fill:#85d7f3; stroke:none;" d="M691.333 440.667L691.667 441.333L691.333 440.667z"/>
<path style="fill:#11c38d; stroke:none;" d="M883 440L883 458L884 458L883 440z"/>
<path style="fill:#85d7f3; stroke:none;" d="M189 441L190 442L189 441M191 444L192 445L191 444M690.333 444.667L690.667 445.333L690.333 444.667M194 448L195 449L194 448M689 448L690 449L689 448M197 452L198 453L197 452M688 452L689 453L688 452M198 453L199 454L198 453M687.333 455.667L687.667 456.333L687.333 455.667M201 457L202 458L201 457M202 458L203 459L202 458z"/>
<path style="fill:#79d7bd; stroke:none;" d="M883 458L884 459L883 458z"/>
<path style="fill:#85d7f3; stroke:none;" d="M203 459L204 460L203 459M686 459L687 460L686 459z"/>
<path style="fill:#11c38d; stroke:none;" d="M883 459L884 460L883 459z"/>
<path style="fill:#85d7f3; stroke:none;" d="M204 460L205 461L204 460z"/>
<path style="fill:#79d7bd; stroke:none;" d="M883 460L883 471L884 471L883 460z"/>
<path style="fill:#85d7f3; stroke:none;" d="M205 461L206 462L205 461M685 462L686 463L685 462M684 465L685 466L684 465M211 467L212 468L211 467z"/>
<path style="fill:#79d7bd; stroke:none;" d="M17 468L17 475L18 475L17 468z"/>
<path style="fill:#85d7f3; stroke:none;" d="M212 468L213 469L212 468M683 468L684 469L683 468M215 470L216 471L215 470M216 471L217 472L216 471M682 471L683 472L682 471z"/>
<path style="fill:#11c38d; stroke:none;" d="M882 471L883 472L882 471z"/>
<path style="fill:#79d7bd; stroke:none;" d="M883 472L884 473L883 472z"/>
<path style="fill:#85d7f3; stroke:none;" d="M219 473L220 474L219 473z"/>
<path style="fill:#11c38d; stroke:none;" d="M882 473L883 474L882 473z"/>
<path style="fill:#85d7f3; stroke:none;" d="M220 474L221 475L220 474M681 474L682 475L681 474M17 475L18 476L17 475z"/>
<path style="fill:#11c38d; stroke:none;" d="M882 475L883 476L882 475z"/>
<path style="fill:#85d7f3; stroke:none;" d="M223 476L224 477L223 476M224 477L225 478L224 477M680 477L681 478L680 477z"/>
<path style="fill:#11c38d; stroke:none;" d="M882.333 477.667L882.667 478.333L882.333 477.667z"/>
<path style="fill:#85d7f3; stroke:none;" d="M227 479L228 480L227 479z"/>
<path style="fill:#79d7bd; stroke:none;" d="M882 479L882 485L883 485L882 479z"/>
<path style="fill:#85d7f3; stroke:none;" d="M679 480L680 481L679 480M230 481L231 482L230 481M233 483L234 484L233 483M678 483L679 484L678 483z"/>
<path style="fill:#79d7bd; stroke:none;" d="M18 485L18 489L19 489L18 485z"/>
<path style="fill:#85d7f3; stroke:none;" d="M236 485L237 486L236 485M677.333 485.667L677.667 486.333L677.333 485.667M238 486L239 487L238 486M241 488L242 489L241 488M676 488L677 489L676 488z"/>
<path style="fill:#11c38d; stroke:none;" d="M881.333 488.667L881.667 489.333L881.333 488.667z"/>
<path style="fill:#85d7f3; stroke:none;" d="M243 489L244 490L243 489M675 491L676 492L675 491z"/>
<path style="fill:#11c38d; stroke:none;" d="M881 491L882 492L881 491z"/>
<path style="fill:#79d7bd; stroke:none;" d="M881 492L881 497L882 497L881 492z"/>
<path style="fill:#85d7f3; stroke:none;" d="M674 493L675 494L674 493z"/>
<path style="fill:#79d7bd; stroke:none;" d="M19 495L19 498L20 498L19 495z"/>
<path style="fill:#85d7f3; stroke:none;" d="M255 495L256 496L255 495M257 496L258 497L257 496M673 496L674 497L673 496M19 498L20 499L19 498M262 498L263 499L262 498M672 498L673 499L672 498M265 499L266 500L265 499z"/>
<path style="fill:#11c38d; stroke:none;" d="M880.333 499.667L880.667 500.333L880.333 499.667z"/>
<path style="fill:#85d7f3; stroke:none;" d="M268 500L269 501L268 500M271.667 501.333L272.333 501.667L271.667 501.333M671 501L672 502L671 501z"/>
<path style="fill:#79d7bd; stroke:none;" d="M880 501L880 505L881 505L880 501z"/>
<path style="fill:#85d7f3; stroke:none;" d="M275.667 502.333L276.333 502.667L275.667 502.333M280 503L280 504L283 504L280 503M670 503L671 504L670 503z"/>
<path style="fill:#79d7bd; stroke:none;" d="M20.3333 504.667L20.6667 505.333L20.3333 504.667z"/>
<path style="fill:#85d7f3; stroke:none;" d="M208.667 504.333L209.333 504.667L208.667 504.333M285.667 504.333L286.333 504.667L285.667 504.333M212 505L213 506L212 505M282 505L283 506L282 505M669 505L670 506L669 505M215 506L216 507L215 506M278.667 506.333L279.333 506.667L278.667 506.333M209 507L210 508L209 507M218.667 507.333L219.333 507.667L218.667 507.333M275 507L276 508L275 507z"/>
<path style="fill:#11c38d; stroke:none;" d="M879.333 507.667L879.667 508.333L879.333 507.667z"/>
<path style="fill:#85d7f3; stroke:none;" d="M222 508L223 509L222 508M271 508L272 509L271 508M668 508L669 509L668 508M225.667 509.333L226.333 509.667L225.667 509.333M267 509L268 510L267 509z"/>
<path style="fill:#79d7bd; stroke:none;" d="M879.333 509.667L879.667 510.333L879.333 509.667z"/>
<path style="fill:#85d7f3; stroke:none;" d="M210 510L211 511L210 510M229.667 510.333L230.333 510.667L229.667 510.333M262.667 510.333L263.333 510.667L262.667 510.333M667 510L668 511L667 510z"/>
<path style="fill:#79d7bd; stroke:none;" d="M21 511L21 514L22 514L21 511z"/>
<path style="fill:#85d7f3; stroke:none;" d="M235 511L235 512L239 512L235 511M255 511L255 512L258 512L255 511M879 511L880 512L879 511M666 512L667 513L666 512M211 513L212 514L211 513M665 514L666 515L665 514z"/>
<path style="fill:#11c38d; stroke:none;" d="M878 514L879 515L878 514z"/>
<path style="fill:#85d7f3; stroke:none;" d="M212 515L213 516L212 515z"/>
<path style="fill:#79d7bd; stroke:none;" d="M878 515L878 518L879 518L878 515M22.3333 518.667L22.6667 519.333L22.3333 518.667z"/>
<path style="fill:#85d7f3; stroke:none;" d="M213 518L214 519L213 518M663 519L664 520L663 519M214 520L215 521L214 520z"/>
<path style="fill:#11c38d; stroke:none;" d="M877 520L878 521L877 520z"/>
<path style="fill:#85d7f3; stroke:none;" d="M662 521L663 522L662 521z"/>
<path style="fill:#79d7bd; stroke:none;" d="M877.333 522.667L877.667 523.333L877.333 522.667z"/>
<path style="fill:#85d7f3; stroke:none;" d="M661 523L662 524L661 523z"/>
<path style="fill:#79d7bd; stroke:none;" d="M23.3333 524.667L23.6667 525.333L23.3333 524.667z"/>
<path style="fill:#85d7f3; stroke:none;" d="M216 525L217 526L216 525M660 525L661 526L660 525z"/>
<path style="fill:#11c38d; stroke:none;" d="M876 526L877 527L876 526z"/>
<path style="fill:#85d7f3; stroke:none;" d="M217 527L218 528L217 527M659 527L660 528L659 527z"/>
<path style="fill:#79d7bd; stroke:none;" d="M876 527L876 530L877 530L876 527M24.3333 529.667L24.6667 530.333L24.3333 529.667z"/>
<path style="fill:#85d7f3; stroke:none;" d="M218 529L219 530L218 529M658 529L659 530L658 529M657 531L658 532L657 531z"/>
<path style="fill:#11c38d; stroke:none;" d="M875 531L876 532L875 531z"/>
<path style="fill:#85d7f3; stroke:none;" d="M656 533L657 534L656 533z"/>
<path style="fill:#79d7bd; stroke:none;" d="M875.333 533.667L875.667 534.333L875.333 533.667M25.3333 534.667L25.6667 535.333L25.3333 534.667z"/>
<path style="fill:#85d7f3; stroke:none;" d="M222 536L223 537L222 536z"/>
<path style="fill:#11c38d; stroke:none;" d="M874 537L875 538L874 537z"/>
<path style="fill:#85d7f3; stroke:none;" d="M223 538L224 539L223 538z"/>
<path style="fill:#79d7bd; stroke:none;" d="M874.333 538.667L874.667 539.333L874.333 538.667M26.3333 539.667L26.6667 540.333L26.3333 539.667z"/>
<path style="fill:#85d7f3; stroke:none;" d="M652 540L653 541L652 540M225 541L226 542L225 541z"/>
<path style="fill:#11c38d; stroke:none;" d="M873 541L874 542L873 541z"/>
<path style="fill:#85d7f3; stroke:none;" d="M651 542L652 543L651 542z"/>
<path style="fill:#79d7bd; stroke:none;" d="M873.333 542.667L873.667 543.333L873.333 542.667M27.3333 544.667L27.6667 545.333L27.3333 544.667z"/>
<path style="fill:#85d7f3; stroke:none;" d="M227 544L228 545L227 544M650 544L651 545L650 544z"/>
<path style="fill:#11c38d; stroke:none;" d="M872 546L873 547L872 546z"/>
<path style="fill:#85d7f3; stroke:none;" d="M229 547L230 548L229 547z"/>
<path style="fill:#79d7bd; stroke:none;" d="M872 547L873 548L872 547M28.3333 548.667L28.6667 549.333L28.3333 548.667z"/>
<path style="fill:#85d7f3; stroke:none;" d="M647 549L648 550L647 549M231 550L232 551L231 550M232 551L233 552L232 551M646 551L647 552L646 551z"/>
<path style="fill:#79d7bd; stroke:none;" d="M871.333 551.667L871.667 552.333L871.333 551.667M29.3333 552.667L29.6667 553.333L29.3333 552.667z"/>
<path style="fill:#85d7f3; stroke:none;" d="M644 554L645 555L644 554M235 555L236 556L235 555z"/>
<path style="fill:#79d7bd; stroke:none;" d="M870.333 555.667L870.667 556.333L870.333 555.667M30.3333 556.667L30.6667 557.333L30.3333 556.667z"/>
<path style="fill:#85d7f3; stroke:none;" d="M236 556L237 557L236 556M643 556L644 557L643 556M641 559L642 560L641 559z"/>
<path style="fill:#79d7bd; stroke:none;" d="M869 559L870 560L869 559M31.3333 560.667L31.6667 561.333L31.3333 560.667z"/>
<path style="fill:#85d7f3; stroke:none;" d="M640 561L641 562L640 561M241 562L242 563L241 562M639 562L640 563L639 562z"/>
<path style="fill:#11c38d; stroke:none;" d="M868 562L869 563L868 562z"/>
<path style="fill:#85d7f3; stroke:none;" d="M242 563L243 564L242 563z"/>
<path style="fill:#79d7bd; stroke:none;" d="M868 563L869 564L868 563M32.3333 564.667L32.6667 565.333L32.3333 564.667z"/>
<path style="fill:#85d7f3; stroke:none;" d="M243 564L244 565L243 564M638 564L639 565L638 564M244 565L245 566L244 565M245 566L246 567L245 566z"/>
<path style="fill:#79d7bd; stroke:none;" d="M867 566L868 567L867 566z"/>
<path style="fill:#85d7f3; stroke:none;" d="M246 567L247 568L246 567M636 567L637 568L636 567M867 567L868 568L867 567z"/>
<path style="fill:#79d7bd; stroke:none;" d="M33 568L34 569L33 568z"/>
<path style="fill:#85d7f3; stroke:none;" d="M248 569L249 570L248 569M634 570L635 571L634 570z"/>
<path style="fill:#79d7bd; stroke:none;" d="M866 570L867 571L866 570M34 571L35 572L34 571z"/>
<path style="fill:#85d7f3; stroke:none;" d="M253 573L254 574L253 573M632 573L633 574L632 573z"/>
<path style="fill:#79d7bd; stroke:none;" d="M865.333 573.667L865.667 574.333L865.333 573.667M35 574L36 575L35 574z"/>
<path style="fill:#85d7f3; stroke:none;" d="M254 574L255 575L254 574M35 575L36 576L35 575M255 575L256 576L255 575M630 576L631 577L630 576z"/>
<path style="fill:#79d7bd; stroke:none;" d="M864.333 576.667L864.667 577.333L864.333 576.667M36 578L37 579L36 578z"/>
<path style="fill:#85d7f3; stroke:none;" d="M259 578L260 579L259 578M628 579L629 580L628 579M627 580L628 581L627 580z"/>
<path style="fill:#79d7bd; stroke:none;" d="M863 580L864 581L863 580M37 581L38 582L37 581z"/>
<path style="fill:#85d7f3; stroke:none;" d="M263 581L264 582L263 581M266 583L267 584L266 583M625 583L626 584L625 583z"/>
<path style="fill:#79d7bd; stroke:none;" d="M862 583L863 584L862 583M38 584L39 585L38 584z"/>
<path style="fill:#85d7f3; stroke:none;" d="M269 585L270 586L269 585M623 586L624 587L623 586z"/>
<path style="fill:#79d7bd; stroke:none;" d="M861 586L862 587L861 586M39 587L40 588L39 587z"/>
<path style="fill:#85d7f3; stroke:none;" d="M622 587L623 588L622 587M274 588L275 589L274 588M276 589L277 590L276 589z"/>
<path style="fill:#79d7bd; stroke:none;" d="M860 589L861 590L860 589M40 590L41 591L40 590z"/>
<path style="fill:#85d7f3; stroke:none;" d="M620 590L621 591L620 590M280 591L281 592L280 591M619 591L620 592L619 591M282 592L283 593L282 592z"/>
<path style="fill:#79d7bd; stroke:none;" d="M859 592L860 593L859 592M41 593L42 594L41 593z"/>
<path style="fill:#85d7f3; stroke:none;" d="M285 593L286 594L285 593M287 594L288 595L287 594M290 595L291 596L290 595M616 595L617 596L616 595M858 595L859 596L858 595z"/>
<path style="fill:#79d7bd; stroke:none;" d="M42 596L43 597L42 596z"/>
<path style="fill:#85d7f3; stroke:none;" d="M293 596L294 597L293 596M615 596L616 597L615 596M296.667 597.333L297.333 597.667L296.667 597.333z"/>
<path style="fill:#79d7bd; stroke:none;" d="M857 597L858 598L857 597M43 598L44 599L43 598z"/>
<path style="fill:#85d7f3; stroke:none;" d="M300 598L301 599L300 598M303.667 599.333L304.333 599.667L303.667 599.333M613 599L614 600L613 599M308.667 600.333L309.333 600.667L308.667 600.333M612 600L613 601L612 600z"/>
<path style="fill:#79d7bd; stroke:none;" d="M856 600L857 601L856 600M44 601L45 602L44 601z"/>
<path style="fill:#85d7f3; stroke:none;" d="M313.667 601.333L314.333 601.667L313.667 601.333M320 602L320 603L323 603L320 602M331.333 603.667L331.667 604.333L331.333 603.667z"/>
<path style="fill:#79d7bd; stroke:none;" d="M855 603L856 604L855 603M45 604L46 605L45 604z"/>
<path style="fill:#85d7f3; stroke:none;" d="M329 605L330 606L329 605M608 605L609 606L608 605z"/>
<path style="fill:#79d7bd; stroke:none;" d="M854 605L855 606L854 605M46 606L47 607L46 606z"/>
<path style="fill:#85d7f3; stroke:none;" d="M607 606L608 607L607 606M326 607L327 608L326 607z"/>
<path style="fill:#79d7bd; stroke:none;" d="M853 608L854 609L853 608M47 609L48 610L47 609z"/>
<path style="fill:#85d7f3; stroke:none;" d="M323 609L324 610L323 609z"/>
<path style="fill:#79d7bd; stroke:none;" d="M852 610L853 611L852 610M48 611L49 612L48 611z"/>
<path style="fill:#85d7f3; stroke:none;" d="M320 611L321 612L320 611M603 611L604 612L603 611M602 612L603 613L602 612M317 613L318 614L317 613M601 613L602 614L601 613M851 613L852 614L851 613z"/>
<path style="fill:#79d7bd; stroke:none;" d="M49 614L50 615L49 614z"/>
<path style="fill:#85d7f3; stroke:none;" d="M600 614L601 615L600 614M314 615L315 616L314 615z"/>
<path style="fill:#79d7bd; stroke:none;" d="M850 615L851 616L850 615M50 616L51 617L50 616z"/>
<path style="fill:#85d7f3; stroke:none;" d="M311 617L312 618L311 617z"/>
<path style="fill:#79d7bd; stroke:none;" d="M51 618L52 619L51 618M849 618L850 619L849 618z"/>
<path style="fill:#85d7f3; stroke:none;" d="M308 619L309 620L308 619M306 620L307 621L306 620z"/>
<path style="fill:#79d7bd; stroke:none;" d="M848 620L849 621L848 620z"/>
<path style="fill:#85d7f3; stroke:none;" d="M52 621L53 622L52 621M594 621L595 622L594 621M303 622L304 623L303 622M593 622L594 623L593 622z"/>
<path style="fill:#79d7bd; stroke:none;" d="M847 622L848 623L847 622M53 623L54 624L53 623z"/>
<path style="fill:#85d7f3; stroke:none;" d="M592 623L593 624L592 623M300 624L301 625L300 624M591 624L592 625L591 624z"/>
<path style="fill:#79d7bd; stroke:none;" d="M54 625L55 626L54 625z"/>
<path style="fill:#85d7f3; stroke:none;" d="M298 625L299 626L298 625M590 625L591 626L590 625z"/>
<path style="fill:#79d7bd; stroke:none;" d="M846 625L847 626L846 625z"/>
<path style="fill:#85d7f3; stroke:none;" d="M589 626L590 627L589 626M295 627L296 628L295 627M588 627L589 628L588 627z"/>
<path style="fill:#79d7bd; stroke:none;" d="M845 627L846 628L845 627z"/>
<path style="fill:#85d7f3; stroke:none;" d="M293 628L294 629L293 628M587 628L588 629L587 628M586 629L587 630L586 629z"/>
<path style="fill:#79d7bd; stroke:none;" d="M844 629L845 630L844 629M56 630L57 631L56 630z"/>
<path style="fill:#85d7f3; stroke:none;" d="M585 630L586 631L585 630M288 631L289 632L288 631M584 631L585 632L584 631z"/>
<path style="fill:#79d7bd; stroke:none;" d="M843 631L844 632L843 631M57 632L58 633L57 632z"/>
<path style="fill:#85d7f3; stroke:none;" d="M286 632L287 633L286 632M583 632L584 633L583 632M284 633L285 634L284 633M582 633L583 634L582 633z"/>
<path style="fill:#79d7bd; stroke:none;" d="M842 633L843 634L842 633M58 634L59 635L58 634z"/>
<path style="fill:#85d7f3; stroke:none;" d="M581 634L582 635L581 634M281 635L282 636L281 635M580 635L581 636L580 635z"/>
<path style="fill:#79d7bd; stroke:none;" d="M59 636L60 637L59 636z"/>
<path style="fill:#85d7f3; stroke:none;" d="M279 636L280 637L279 636M579 636L580 637L579 636M277 637L278 638L277 637M578 637L579 638L578 637z"/>
<path style="fill:#79d7bd; stroke:none;" d="M60 638L61 639L60 638z"/>
<path style="fill:#85d7f3; stroke:none;" d="M275 638L276 639L275 638M577 638L578 639L577 638M273 639L274 640L273 639M576 639L577 640L576 639z"/>
<path style="fill:#79d7bd; stroke:none;" d="M61 640L62 641L61 640z"/>
<path style="fill:#85d7f3; stroke:none;" d="M271 640L272 641L271 640M269 641L270 642L269 641z"/>
<path style="fill:#79d7bd; stroke:none;" d="M62 642L63 643L62 642z"/>
<path style="fill:#85d7f3; stroke:none;" d="M267 642L268 643L267 642M265 643L266 644L265 643z"/>
<path style="fill:#79d7bd; stroke:none;" d="M63 644L64 645L63 644z"/>
<path style="fill:#85d7f3; stroke:none;" d="M263 644L264 645L263 644M261 645L262 646L261 645M569 645L570 646L569 645z"/>
<path style="fill:#79d7bd; stroke:none;" d="M64 646L65 647L64 646z"/>
<path style="fill:#85d7f3; stroke:none;" d="M568 646L569 647L568 646M256 647L257 648L256 647M567 647L568 648L567 647z"/>
<path style="fill:#79d7bd; stroke:none;" d="M65 648L66 649L65 648z"/>
<path style="fill:#85d7f3; stroke:none;" d="M254 648L255 649L254 648M566 648L567 649L566 648M252 649L253 650L252 649z"/>
<path style="fill:#79d7bd; stroke:none;" d="M66 650L67 651L66 650z"/>
<path style="fill:#85d7f3; stroke:none;" d="M249 650L250 651L249 650M247 651L248 652L247 651z"/>
<path style="fill:#79d7bd; stroke:none;" d="M833 651L834 652L833 651M67 652L68 653L67 652z"/>
<path style="fill:#85d7f3; stroke:none;" d="M244 652L245 653L244 652M561 652L562 653L561 652M241 653L242 654L241 653M560 653L561 654L560 653z"/>
<path style="fill:#79d7bd; stroke:none;" d="M832 653L833 654L832 653M68 654L69 655L68 654z"/>
<path style="fill:#85d7f3; stroke:none;" d="M559 654L560 655L559 654M236 655L237 656L236 655M831 655L832 656L831 655M233 656L234 657L233 656z"/>
<path style="fill:#79d7bd; stroke:none;" d="M70 657L71 658L70 657z"/>
<path style="fill:#85d7f3; stroke:none;" d="M229 657L230 658L229 657M555 657L556 658L555 657M830 657L831 658L830 657M226 658L227 659L226 658M554 658L555 659L554 658z"/>
<path style="fill:#79d7bd; stroke:none;" d="M71 659L72 660L71 659z"/>
<path style="fill:#85d7f3; stroke:none;" d="M222.667 659.333L223.333 659.667L222.667 659.333M219 660L220 661L219 660z"/>
<path style="fill:#79d7bd; stroke:none;" d="M72 661L73 662L72 661z"/>
<path style="fill:#85d7f3; stroke:none;" d="M215 661L216 662L215 661M550 661L551 662L550 661M211.667 662.333L212.333 662.667L211.667 662.333z"/>
<path style="fill:#79d7bd; stroke:none;" d="M827 662L828 663L827 662z"/>
<path style="fill:#85d7f3; stroke:none;" d="M207.667 663.333L208.333 663.667L207.667 663.333M203.667 664.333L204.333 664.667L203.667 664.333M546 664L547 665L546 664z"/>
<path style="fill:#79d7bd; stroke:none;" d="M826 664L827 665L826 664z"/>
<path style="fill:#85d7f3; stroke:none;" d="M199 665L200 666L199 665M545 665L546 666L545 665z"/>
<path style="fill:#79d7bd; stroke:none;" d="M75 666L76 667L75 666z"/>
<path style="fill:#85d7f3; stroke:none;" d="M193.667 666.333L194.333 666.667L193.667 666.333z"/>
<path style="fill:#79d7bd; stroke:none;" d="M825 666L826 667L825 666z"/>
<path style="fill:#85d7f3; stroke:none;" d="M187 667L187 668L190 668L187 667M542 667L543 668L542 667z"/>
<path style="fill:#79d7bd; stroke:none;" d="M824 667L825 668L824 667M76 668L77 669L76 668z"/>
<path style="fill:#85d7f3; stroke:none;" d="M179 668L179 669L182 669L179 668M171 669L171 670L174 670L171 669M823 669L824 670L823 669M161 670L161 671L164 671L161 670M538 670L539 671L538 670z"/>
<path style="fill:#79d7bd; stroke:none;" d="M78 671L79 672L78 671z"/>
<path style="fill:#85d7f3; stroke:none;" d="M156 671L157 672L156 671M822 671L823 672L822 671M157 672L158 673L157 672M535 672L536 673L535 672z"/>
<path style="fill:#79d7bd; stroke:none;" d="M79 673L80 674L79 673z"/>
<path style="fill:#85d7f3; stroke:none;" d="M532 674L533 675L532 674M820 674L821 675L820 674M161 675L162 676L161 675M531 675L532 676L531 675z"/>
<path style="fill:#79d7bd; stroke:none;" d="M81 676L82 677L81 676z"/>
<path style="fill:#85d7f3; stroke:none;" d="M529 676L530 677L529 676z"/>
<path style="fill:#79d7bd; stroke:none;" d="M819 676L820 677L819 676z"/>
<path style="fill:#85d7f3; stroke:none;" d="M164 677L165 678L164 677M528 677L529 678L528 677z"/>
<path style="fill:#79d7bd; stroke:none;" d="M818 677L819 678L818 677z"/>
<path style="fill:#85d7f3; stroke:none;" d="M526 678L527 679L526 678z"/>
<path style="fill:#79d7bd; stroke:none;" d="M83 679L84 680L83 679z"/>
<path style="fill:#85d7f3; stroke:none;" d="M167 679L168 680L167 679z"/>
<path style="fill:#79d7bd; stroke:none;" d="M817 679L818 680L817 679z"/>
<path style="fill:#85d7f3; stroke:none;" d="M168 680L169 681L168 680M523 680L524 681L523 680z"/>
<path style="fill:#79d7bd; stroke:none;" d="M84 681L85 682L84 681z"/>
<path style="fill:#85d7f3; stroke:none;" d="M170 681L171 682L170 681M171 682L172 683L171 682M520 682L521 683L520 682z"/>
<path style="fill:#79d7bd; stroke:none;" d="M815 682L816 683L815 682z"/>
<path style="fill:#85d7f3; stroke:none;" d="M173 683L174 684L173 683M518 683L519 684L518 683z"/>
<path style="fill:#79d7bd; stroke:none;" d="M86 684L87 685L86 684z"/>
<path style="fill:#85d7f3; stroke:none;" d="M814 684L815 685L814 684M176 685L177 686L176 685M515 685L516 686L515 685z"/>
<path style="fill:#79d7bd; stroke:none;" d="M813 685L814 686L813 685z"/>
<path style="fill:#85d7f3; stroke:none;" d="M178 686L179 687L178 686M513 686L514 687L513 686z"/>
<path style="fill:#79d7bd; stroke:none;" d="M88 687L89 688L88 687z"/>
<path style="fill:#85d7f3; stroke:none;" d="M812 687L813 688L812 687M181 688L182 689L181 688M510 688L511 689L510 688z"/>
<path style="fill:#79d7bd; stroke:none;" d="M811 688L812 689L811 688z"/>
<path style="fill:#85d7f3; stroke:none;" d="M183 689L184 690L183 689M508 689L509 690L508 689z"/>
<path style="fill:#79d7bd; stroke:none;" d="M90 690L91 691L90 690z"/>
<path style="fill:#85d7f3; stroke:none;" d="M186 691L187 692L186 691z"/>
<path style="fill:#79d7bd; stroke:none;" d="M809 691L810 692L809 691z"/>
<path style="fill:#85d7f3; stroke:none;" d="M188 692L189 693L188 692M503 692L504 693L503 692z"/>
<path style="fill:#79d7bd; stroke:none;" d="M92 693L93 694L92 693z"/>
<path style="fill:#85d7f3; stroke:none;" d="M190 693L191 694L190 693M501 693L502 694L501 693M808 693L809 694L808 693M499 694L500 695L499 694z"/>
<path style="fill:#79d7bd; stroke:none;" d="M807 694L808 695L807 694z"/>
<path style="fill:#85d7f3; stroke:none;" d="M497 695L498 696L497 695z"/>
<path style="fill:#79d7bd; stroke:none;" d="M94 696L95 697L94 696z"/>
<path style="fill:#85d7f3; stroke:none;" d="M495 696L496 697L495 696z"/>
<path style="fill:#79d7bd; stroke:none;" d="M95 697L96 698L95 697z"/>
<path style="fill:#85d7f3; stroke:none;" d="M493 697L494 698L493 697z"/>
<path style="fill:#79d7bd; stroke:none;" d="M805 697L806 698L805 697z"/>
<path style="fill:#85d7f3; stroke:none;" d="M491 698L492 699L491 698M489 699L490 700L489 699z"/>
<path style="fill:#79d7bd; stroke:none;" d="M97 700L98 701L97 700z"/>
<path style="fill:#85d7f3; stroke:none;" d="M487 700L488 701L487 700z"/>
<path style="fill:#79d7bd; stroke:none;" d="M803 700L804 701L803 700z"/>
<path style="fill:#85d7f3; stroke:none;" d="M206 701L207 702L206 701M485 701L486 702L485 701z"/>
<path style="fill:#79d7bd; stroke:none;" d="M802 701L803 702L802 701z"/>
<path style="fill:#85d7f3; stroke:none;" d="M208 702L209 703L208 702M483 702L484 703L483 702z"/>
<path style="fill:#79d7bd; stroke:none;" d="M99 703L100 704L99 703z"/>
<path style="fill:#85d7f3; stroke:none;" d="M210 703L211 704L210 703M481 703L482 704L481 703z"/>
<path style="fill:#79d7bd; stroke:none;" d="M100 704L101 705L100 704z"/>
<path style="fill:#85d7f3; stroke:none;" d="M212 704L213 705L212 704z"/>
<path style="fill:#79d7bd; stroke:none;" d="M800 704L801 705L800 704z"/>
<path style="fill:#85d7f3; stroke:none;" d="M476 705L477 706L476 705z"/>
<path style="fill:#79d7bd; stroke:none;" d="M101 706L102 707L101 706z"/>
<path style="fill:#85d7f3; stroke:none;" d="M217 706L218 707L217 706M474 706L475 707L474 706z"/>
<path style="fill:#79d7bd; stroke:none;" d="M102 707L103 708L102 707z"/>
<path style="fill:#85d7f3; stroke:none;" d="M219 707L220 708L219 707M222 708L223 709L222 708M469 708L470 709L469 708M797 708L798 709L797 708M224 709L225 710L224 709M467 709L468 710L467 709z"/>
<path style="fill:#79d7bd; stroke:none;" d="M104 710L105 711L104 710z"/>
<path style="fill:#85d7f3; stroke:none;" d="M227 710L228 711L227 710M464 710L465 711L464 710z"/>
<path style="fill:#79d7bd; stroke:none;" d="M105 711L106 712L105 711z"/>
<path style="fill:#85d7f3; stroke:none;" d="M229.667 711.333L230.333 711.667L229.667 711.333M461.667 711.333L462.333 711.667L461.667 711.333z"/>
<path style="fill:#79d7bd; stroke:none;" d="M106 712L107 713L106 712z"/>
<path style="fill:#85d7f3; stroke:none;" d="M232 712L233 713L232 712M459 712L460 713L459 712z"/>
<path style="fill:#79d7bd; stroke:none;" d="M794 712L795 713L794 712z"/>
<path style="fill:#85d7f3; stroke:none;" d="M235 713L236 714L235 713M456 713L457 714L456 713M238 714L239 715L238 714M453 714L454 715L453 714z"/>
<path style="fill:#79d7bd; stroke:none;" d="M108 715L109 716L108 715z"/>
<path style="fill:#85d7f3; stroke:none;" d="M241 715L242 716L241 715M450 715L451 716L450 715z"/>
<path style="fill:#79d7bd; stroke:none;" d="M109 716L110 717L109 716z"/>
<path style="fill:#85d7f3; stroke:none;" d="M244 716L245 717L244 716M447.667 716.333L448.333 716.667L447.667 716.333z"/>
<path style="fill:#79d7bd; stroke:none;" d="M791 716L792 717L791 716z"/>
<path style="fill:#85d7f3; stroke:none;" d="M247 717L248 718L247 717M444 717L445 718L444 717z"/>
<path style="fill:#79d7bd; stroke:none;" d="M790 717L791 718L790 717z"/>
<path style="fill:#85d7f3; stroke:none;" d="M250.667 718.333L251.333 718.667L250.667 718.333M441 718L442 719L441 718M254 719L255 720L254 719M438 719L439 720L438 719z"/>
<path style="fill:#79d7bd; stroke:none;" d="M112 720L113 721L112 720z"/>
<path style="fill:#85d7f3; stroke:none;" d="M257.667 720.333L258.333 720.667L257.667 720.333M434.667 720.333L435.333 720.667L434.667 720.333z"/>
<path style="fill:#79d7bd; stroke:none;" d="M113 721L114 722L113 721z"/>
<path style="fill:#85d7f3; stroke:none;" d="M261.667 721.333L262.333 721.667L261.667 721.333M431 721L432 722L431 721M787 721L788 722L787 721M265.667 722.333L266.333 722.667L265.667 722.333M427 722L428 723L427 722M786 722L787 723L786 722M269.667 723.333L270.333 723.667L269.667 723.333M423 723L424 724L423 723M274 724L275 725L274 724M419 724L420 725L419 724z"/>
<path style="fill:#79d7bd; stroke:none;" d="M116 725L117 726L116 725z"/>
<path style="fill:#85d7f3; stroke:none;" d="M278.667 725.333L279.333 725.667L278.667 725.333M414.667 725.333L415.333 725.667L414.667 725.333z"/>
<path style="fill:#79d7bd; stroke:none;" d="M117 726L118 727L117 726z"/>
<path style="fill:#85d7f3; stroke:none;" d="M283.667 726.333L284.333 726.667L283.667 726.333M409.667 726.333L410.333 726.667L409.667 726.333M783 726L784 727L783 726z"/>
<path style="fill:#79d7bd; stroke:none;" d="M118 727L119 728L118 727z"/>
<path style="fill:#85d7f3; stroke:none;" d="M289.667 727.333L290.333 727.667L289.667 727.333M404.667 727.333L405.333 727.667L404.667 727.333M782 727L783 728L782 727M295.667 728.333L296.333 728.667L295.667 728.333M398.667 728.333L399.333 728.667L398.667 728.333z"/>
<path style="fill:#79d7bd; stroke:none;" d="M781 728L782 729L781 728z"/>
<path style="fill:#85d7f3; stroke:none;" d="M301 729L301 730L304 730L301 729M392.667 729.333L393.333 729.667L392.667 729.333M309 730L309 731L312 731L309 730M384 730L384 731L387 731L384 730M319 731L319 732L323 732L319 731M374 731L374 732L378 732L374 731z"/>
<path style="fill:#79d7bd; stroke:none;" d="M122 732L123 733L122 732z"/>
<path style="fill:#85d7f3; stroke:none;" d="M331 732L332 733L331 732M333 732L333 733L340 733L333 732M355 732L356 733L355 732M357 732L357 733L364 733L357 732M778 732L779 733L778 732z"/>
<path style="fill:#79d7bd; stroke:none;" d="M123 733L124 734L123 733z"/>
<path style="fill:#85d7f3; stroke:none;" d="M777 733L778 734L777 733z"/>
<path style="fill:#79d7bd; stroke:none;" d="M124 734L125 735L124 734M776 734L777 735L776 734z"/>
<path style="fill:#85d7f3; stroke:none;" d="M775 735L776 736L775 735z"/>
<path style="fill:#79d7bd; stroke:none;" d="M129 740L130 741L129 740M130 741L131 742L130 741M131 742L132 743L131 742z"/>
<path style="fill:#85d7f3; stroke:none;" d="M769 742L770 743L769 742z"/>
<path style="fill:#79d7bd; stroke:none;" d="M132 743L133 744L132 743z"/>
<path style="fill:#85d7f3; stroke:none;" d="M768 743L769 744L768 743z"/>
<path style="fill:#79d7bd; stroke:none;" d="M133 744L134 745L133 744z"/>
<path style="fill:#85d7f3; stroke:none;" d="M767 744L768 745L767 744z"/>
<path style="fill:#79d7bd; stroke:none;" d="M134 745L135 746L134 745z"/>
<path style="fill:#85d7f3; stroke:none;" d="M766 745L767 746L766 745z"/>
<path style="fill:#79d7bd; stroke:none;" d="M135 746L136 747L135 746z"/>
<path style="fill:#85d7f3; stroke:none;" d="M765 746L766 747L765 746z"/>
<path style="fill:#79d7bd; stroke:none;" d="M136 747L137 748L136 747M764 747L765 748L764 747M762 749L763 750L762 749M750 761L751 762L750 761M151 762L152 763L151 762M152 763L159 770L152 763z"/>
<path style="fill:#11c38d; stroke:none;" d="M153 763L154 764L153 763z"/>
<path style="fill:#79d7bd; stroke:none;" d="M748 763L749 764L748 763z"/>
<path style="fill:#11c38d; stroke:none;" d="M154 764L155 765L154 764z"/>
<path style="fill:#85d7f3; stroke:none;" d="M747 764L748 765L747 764z"/>
<path style="fill:#11c38d; stroke:none;" d="M155 765L156 766L155 765z"/>
<path style="fill:#85d7f3; stroke:none;" d="M746 765L747 766L746 765z"/>
<path style="fill:#11c38d; stroke:none;" d="M156 766L157 767L156 766z"/>
<path style="fill:#85d7f3; stroke:none;" d="M745 766L746 767L745 766z"/>
<path style="fill:#11c38d; stroke:none;" d="M157 767L158 768L157 767z"/>
<path style="fill:#85d7f3; stroke:none;" d="M744 767L745 768L744 767z"/>
<path style="fill:#11c38d; stroke:none;" d="M158 768L159 769L158 768M159 769L160 770L159 769M160 770L161 771L160 770M161 771L162 772L161 771M162 772L163 773L162 772M163 773L164 774L163 773z"/>
<path style="fill:#85d7f3; stroke:none;" d="M737 773L738 774L737 773z"/>
<path style="fill:#79d7bd; stroke:none;" d="M164 774L167 777L164 774z"/>
<path style="fill:#11c38d; stroke:none;" d="M165 774L166 775L165 774z"/>
<path style="fill:#85d7f3; stroke:none;" d="M736 774L737 775L736 774z"/>
<path style="fill:#11c38d; stroke:none;" d="M166 775L167 776L166 775z"/>
<path style="fill:#85d7f3; stroke:none;" d="M735 775L736 776L735 775z"/>
<path style="fill:#11c38d; stroke:none;" d="M167 776L168 777L167 776z"/>
<path style="fill:#85d7f3; stroke:none;" d="M734 776L735 777L734 776z"/>
<path style="fill:#11c38d; stroke:none;" d="M168 777L169 778L168 777M169 778L170 779L169 778M170 779L171 780L170 779z"/>
<path style="fill:#79d7bd; stroke:none;" d="M171 780L174 783L171 780z"/>
<path style="fill:#11c38d; stroke:none;" d="M172 780L173 781L172 780z"/>
<path style="fill:#85d7f3; stroke:none;" d="M729 780L730 781L729 780z"/>
<path style="fill:#11c38d; stroke:none;" d="M173 781L174 782L173 781z"/>
<path style="fill:#85d7f3; stroke:none;" d="M728 781L729 782L728 781z"/>
<path style="fill:#11c38d; stroke:none;" d="M174 782L175 783L174 782z"/>
<path style="fill:#85d7f3; stroke:none;" d="M727 782L728 783L727 782z"/>
<path style="fill:#11c38d; stroke:none;" d="M175 783L176 784L175 783M176 784L177 785L176 784z"/>
<path style="fill:#79d7bd; stroke:none;" d="M177 785L180 788L177 785z"/>
<path style="fill:#11c38d; stroke:none;" d="M178 785L179 786L178 785z"/>
<path style="fill:#85d7f3; stroke:none;" d="M723 785L724 786L723 785z"/>
<path style="fill:#11c38d; stroke:none;" d="M179 786L180 787L179 786z"/>
<path style="fill:#85d7f3; stroke:none;" d="M722 786L723 787L722 786z"/>
<path style="fill:#11c38d; stroke:none;" d="M180 787L181 788L180 787M181 788L182 789L181 788z"/>
<path style="fill:#79d7bd; stroke:none;" d="M182 789L184 791L182 789z"/>
<path style="fill:#11c38d; stroke:none;" d="M183 789L184 790L183 789z"/>
<path style="fill:#79d7bd; stroke:none;" d="M718 789L719 790L718 789z"/>
<path style="fill:#11c38d; stroke:none;" d="M184 790L185 791L184 790z"/>
<path style="fill:#85d7f3; stroke:none;" d="M717 790L718 791L717 790z"/>
<path style="fill:#11c38d; stroke:none;" d="M185 791L186 792L185 791z"/>
<path style="fill:#79d7bd; stroke:none;" d="M186 792L187 793L186 792M187 793L188 794L187 793z"/>
<path style="fill:#11c38d; stroke:none;" d="M188 793L189 794L188 793z"/>
<path style="fill:#85d7f3; stroke:none;" d="M713 793L714 794L713 793z"/>
<path style="fill:#11c38d; stroke:none;" d="M189 794L190 795L189 794M190 795L191 796L190 795z"/>
<path style="fill:#79d7bd; stroke:none;" d="M191 796L193 798L191 796z"/>
<path style="fill:#11c38d; stroke:none;" d="M192 796L193 797L192 796z"/>
<path style="fill:#85d7f3; stroke:none;" d="M709 796L710 797L709 796z"/>
<path style="fill:#11c38d; stroke:none;" d="M193 797L194 798L193 797z"/>
<path style="fill:#79d7bd; stroke:none;" d="M194 798L195 799L194 798M195 799L196 800L195 799z"/>
<path style="fill:#11c38d; stroke:none;" d="M196 799L197 800L196 799z"/>
<path style="fill:#85d7f3; stroke:none;" d="M705 799L706 800L705 799z"/>
<path style="fill:#11c38d; stroke:none;" d="M197 800L198 801L197 800z"/>
<path style="fill:#79d7bd; stroke:none;" d="M198 801L199 802L198 801z"/>
<path style="fill:#11c38d; stroke:none;" d="M199 801L200 802L199 801z"/>
<path style="fill:#79d7bd; stroke:none;" d="M702 801L703 802L702 801z"/>
<path style="fill:#11c38d; stroke:none;" d="M200 802L201 803L200 802z"/>
<path style="fill:#85d7f3; stroke:none;" d="M701 802L702 803L701 802z"/>
<path style="fill:#79d7bd; stroke:none;" d="M201 803L202 804L201 803M202 804L203 805L202 804z"/>
<path style="fill:#11c38d; stroke:none;" d="M203 804L204 805L203 804z"/>
<path style="fill:#85d7f3; stroke:none;" d="M698 804L699 805L698 804z"/>
<path style="fill:#11c38d; stroke:none;" d="M204 805L205 806L204 805z"/>
<path style="fill:#79d7bd; stroke:none;" d="M205 806L206 807L205 806z"/>
<path style="fill:#11c38d; stroke:none;" d="M206 806L207 807L206 806z"/>
<path style="fill:#85d7f3; stroke:none;" d="M695 806L696 807L695 806z"/>
<path style="fill:#11c38d; stroke:none;" d="M207 807L208 808L207 807z"/>
<path style="fill:#79d7bd; stroke:none;" d="M208 808L209 809L208 808z"/>
<path style="fill:#11c38d; stroke:none;" d="M209 808L210 809L209 808z"/>
<path style="fill:#79d7bd; stroke:none;" d="M692 808L693 809L692 808z"/>
<path style="fill:#11c38d; stroke:none;" d="M210 809L211 810L210 809z"/>
<path style="fill:#79d7bd; stroke:none;" d="M211 810L212 811L211 810z"/>
<path style="fill:#11c38d; stroke:none;" d="M212 810L213 811L212 810z"/>
<path style="fill:#79d7bd; stroke:none;" d="M689 810L690 811L689 810z"/>
<path style="fill:#11c38d; stroke:none;" d="M213 811L214 812L213 811z"/>
<path style="fill:#79d7bd; stroke:none;" d="M214 812L215 813L214 812z"/>
<path style="fill:#11c38d; stroke:none;" d="M215 812L216 813L215 812z"/>
<path style="fill:#79d7bd; stroke:none;" d="M686 812L687 813L686 812z"/>
<path style="fill:#11c38d; stroke:none;" d="M216 813L217 814L216 813z"/>
<path style="fill:#79d7bd; stroke:none;" d="M217 814L218 815L217 814z"/>
<path style="fill:#11c38d; stroke:none;" d="M218 814L219 815L218 814z"/>
<path style="fill:#85d7f3; stroke:none;" d="M683 814L684 815L683 814z"/>
<path style="fill:#79d7bd; stroke:none;" d="M219 815L220 816L219 815M220 816L221 817L220 816z"/>
<path style="fill:#11c38d; stroke:none;" d="M221 816L222 817L221 816z"/>
<path style="fill:#85d7f3; stroke:none;" d="M680 816L681 817L680 816z"/>
<path style="fill:#79d7bd; stroke:none;" d="M222 817L223 818L222 817M678 817L679 818L678 817z"/>
<path style="fill:#11c38d; stroke:none;" d="M224 818L225 819L224 818z"/>
<path style="fill:#79d7bd; stroke:none;" d="M225 819L226 820L225 819z"/>
<path style="fill:#11c38d; stroke:none;" d="M226 819L227 820L226 819z"/>
<path style="fill:#85d7f3; stroke:none;" d="M675 819L676 820L675 819z"/>
<path style="fill:#79d7bd; stroke:none;" d="M227 820L228 821L227 820z"/>
<path style="fill:#11c38d; stroke:none;" d="M229 821L230 822L229 821z"/>
<path style="fill:#79d7bd; stroke:none;" d="M230 822L231 823L230 822z"/>
<path style="fill:#11c38d; stroke:none;" d="M231 822L232 823L231 822z"/>
<path style="fill:#85d7f3; stroke:none;" d="M670 822L671 823L670 822z"/>
<path style="fill:#79d7bd; stroke:none;" d="M232 823L233 824L232 823z"/>
<path style="fill:#85d7f3; stroke:none;" d="M668 823L669 824L668 823z"/>
<path style="fill:#11c38d; stroke:none;" d="M234 824L235 825L234 824M236 825L237 826L236 825z"/>
<path style="fill:#85d7f3; stroke:none;" d="M665 825L666 826L665 825z"/>
<path style="fill:#79d7bd; stroke:none;" d="M237 826L238 827L237 826z"/>
<path style="fill:#11c38d; stroke:none;" d="M238 826L239 827L238 826z"/>
<path style="fill:#85d7f3; stroke:none;" d="M663 826L664 827L663 826z"/>
<path style="fill:#79d7bd; stroke:none;" d="M239 827L240 828L239 827M241 828L242 829L241 828z"/>
<path style="fill:#11c38d; stroke:none;" d="M243 829L244 830L243 829z"/>
<path style="fill:#79d7bd; stroke:none;" d="M244 830L245 831L244 830z"/>
<path style="fill:#11c38d; stroke:none;" d="M245 830L246 831L245 830z"/>
<path style="fill:#85d7f3; stroke:none;" d="M656 830L657 831L656 830z"/>
<path style="fill:#79d7bd; stroke:none;" d="M246 831L247 832L246 831z"/>
<path style="fill:#11c38d; stroke:none;" d="M247 831L248 832L247 831z"/>
<path style="fill:#85d7f3; stroke:none;" d="M654 831L655 832L654 831z"/>
<path style="fill:#79d7bd; stroke:none;" d="M248 832L249 833L248 832z"/>
<path style="fill:#11c38d; stroke:none;" d="M249 832L250 833L249 832z"/>
<path style="fill:#85d7f3; stroke:none;" d="M652 832L653 833L652 832z"/>
<path style="fill:#79d7bd; stroke:none;" d="M250 833L251 834L250 833z"/>
<path style="fill:#85d7f3; stroke:none;" d="M650 833L651 834L650 833z"/>
<path style="fill:#79d7bd; stroke:none;" d="M252 834L253 835L252 834z"/>
<path style="fill:#85d7f3; stroke:none;" d="M648 834L649 835L648 834z"/>
<path style="fill:#79d7bd; stroke:none;" d="M254 835L255 836L254 835z"/>
<path style="fill:#85d7f3; stroke:none;" d="M646 835L647 836L646 835z"/>
<path style="fill:#79d7bd; stroke:none;" d="M256 836L257 837L256 836M258 837L259 838L258 837M260 838L261 839L260 838M640 838L641 839L640 838M262 839L263 840L262 839M638 839L639 840L638 839M264 840L265 841L264 840z"/>
<path style="fill:#85d7f3; stroke:none;" d="M636 840L637 841L636 840z"/>
<path style="fill:#79d7bd; stroke:none;" d="M266 841L267 842L266 841z"/>
<path style="fill:#11c38d; stroke:none;" d="M267 841L268 842L267 841z"/>
<path style="fill:#85d7f3; stroke:none;" d="M634 841L635 842L634 841z"/>
<path style="fill:#79d7bd; stroke:none;" d="M268 842L269 843L268 842z"/>
<path style="fill:#11c38d; stroke:none;" d="M269 842L270 843L269 842z"/>
<path style="fill:#85d7f3; stroke:none;" d="M632 842L633 843L632 842z"/>
<path style="fill:#79d7bd; stroke:none;" d="M271 843L272 844L271 843z"/>
<path style="fill:#85d7f3; stroke:none;" d="M630 843L631 844L630 843z"/>
<path style="fill:#79d7bd; stroke:none;" d="M273 844L274 845L273 844M275 845L276 846L275 845M625 845L626 846L625 845M277 846L278 847L277 846z"/>
<path style="fill:#85d7f3; stroke:none;" d="M623 846L624 847L623 846z"/>
<path style="fill:#79d7bd; stroke:none;" d="M280 847L281 848L280 847z"/>
<path style="fill:#85d7f3; stroke:none;" d="M621 847L622 848L621 847z"/>
<path style="fill:#79d7bd; stroke:none;" d="M282 848L283 849L282 848M618 848L619 849L618 848z"/>
<path style="fill:#85d7f3; stroke:none;" d="M284 849L285 850L284 849z"/>
<path style="fill:#79d7bd; stroke:none;" d="M285 849L286 850L285 849z"/>
<path style="fill:#85d7f3; stroke:none;" d="M616 849L617 850L616 849z"/>
<path style="fill:#79d7bd; stroke:none;" d="M287 850L288 851L287 850M289 851L290 852L289 851z"/>
<path style="fill:#85d7f3; stroke:none;" d="M611 851L612 852L611 851z"/>
<path style="fill:#79d7bd; stroke:none;" d="M292 852L293 853L292 852M294.667 853.333L295.333 853.667L294.667 853.333z"/>
<path style="fill:#85d7f3; stroke:none;" d="M606 853L607 854L606 853z"/>
<path style="fill:#79d7bd; stroke:none;" d="M297 854L298 855L297 854z"/>
<path style="fill:#85d7f3; stroke:none;" d="M603 854L604 855L603 854z"/>
<path style="fill:#79d7bd; stroke:none;" d="M300 855L301 856L300 855z"/>
<path style="fill:#85d7f3; stroke:none;" d="M601 855L602 856L601 855z"/>
<path style="fill:#79d7bd; stroke:none;" d="M302.667 856.333L303.333 856.667L302.667 856.333z"/>
<path style="fill:#85d7f3; stroke:none;" d="M598 856L599 857L598 856z"/>
<path style="fill:#79d7bd; stroke:none;" d="M305 857L306 858L305 857z"/>
<path style="fill:#85d7f3; stroke:none;" d="M595 857L596 858L595 857z"/>
<path style="fill:#79d7bd; stroke:none;" d="M308 858L309 859L308 858z"/>
<path style="fill:#85d7f3; stroke:none;" d="M592 858L593 859L592 858z"/>
<path style="fill:#79d7bd; stroke:none;" d="M311 859L312 860L311 859z"/>
<path style="fill:#85d7f3; stroke:none;" d="M589 859L590 860L589 859z"/>
<path style="fill:#79d7bd; stroke:none;" d="M314 860L315 861L314 860z"/>
<path style="fill:#85d7f3; stroke:none;" d="M586 860L587 861L586 860z"/>
<path style="fill:#79d7bd; stroke:none;" d="M317 861L318 862L317 861M583 861L584 862L583 861z"/>
<path style="fill:#85d7f3; stroke:none;" d="M320 862L321 863L320 862z"/>
<path style="fill:#79d7bd; stroke:none;" d="M580 862L581 863L580 862z"/>
<path style="fill:#85d7f3; stroke:none;" d="M323 863L324 864L323 863z"/>
<path style="fill:#79d7bd; stroke:none;" d="M324 863L325 864L324 863z"/>
<path style="fill:#85d7f3; stroke:none;" d="M577 863L578 864L577 863z"/>
<path style="fill:#79d7bd; stroke:none;" d="M327 864L328 865L327 864z"/>
<path style="fill:#85d7f3; stroke:none;" d="M574 864L575 865L574 864z"/>
<path style="fill:#79d7bd; stroke:none;" d="M330 865L331 866L330 865M570 865L571 866L570 865M333.667 866.333L334.333 866.667L333.667 866.333z"/>
<path style="fill:#85d7f3; stroke:none;" d="M566.667 866.333L567.333 866.667L566.667 866.333z"/>
<path style="fill:#79d7bd; stroke:none;" d="M337.667 867.333L338.333 867.667L337.667 867.333z"/>
<path style="fill:#85d7f3; stroke:none;" d="M563 867L564 868L563 867z"/>
<path style="fill:#79d7bd; stroke:none;" d="M341.667 868.333L342.333 868.667L341.667 868.333z"/>
<path style="fill:#85d7f3; stroke:none;" d="M559 868L560 869L559 868M345 869L346 870L345 869z"/>
<path style="fill:#79d7bd; stroke:none;" d="M346 869L347 870L346 869z"/>
<path style="fill:#85d7f3; stroke:none;" d="M555 869L556 870L555 869z"/>
<path style="fill:#79d7bd; stroke:none;" d="M349.667 870.333L350.333 870.667L349.667 870.333z"/>
<path style="fill:#85d7f3; stroke:none;" d="M551 870L552 871L551 870z"/>
<path style="fill:#79d7bd; stroke:none;" d="M353.667 871.333L354.333 871.667L353.667 871.333z"/>
<path style="fill:#85d7f3; stroke:none;" d="M547 871L548 872L547 871z"/>
<path style="fill:#79d7bd; stroke:none;" d="M358 872L359 873L358 872z"/>
<path style="fill:#85d7f3; stroke:none;" d="M542.667 872.333L543.333 872.667L542.667 872.333M363 873L364 874L363 873z"/>
<path style="fill:#79d7bd; stroke:none;" d="M537 873L538 874L537 873z"/>
<path style="fill:#85d7f3; stroke:none;" d="M538 873L539 874L538 873z"/>
<path style="fill:#79d7bd; stroke:none;" d="M368 874L369 875L368 874z"/>
<path style="fill:#85d7f3; stroke:none;" d="M532 874L533 875L532 874z"/>
<path style="fill:#79d7bd; stroke:none;" d="M533 874L534 875L533 874z"/>
<path style="fill:#85d7f3; stroke:none;" d="M373 875L374 876L373 875z"/>
<path style="fill:#79d7bd; stroke:none;" d="M374 875L375 876L374 875M527 875L528 876L527 875z"/>
<path style="fill:#85d7f3; stroke:none;" d="M528 875L529 876L528 875z"/>
<path style="fill:#79d7bd; stroke:none;" d="M378 876L378 877L381 877L378 876z"/>
<path style="fill:#85d7f3; stroke:none;" d="M521.667 876.333L522.333 876.667L521.667 876.333z"/>
<path style="fill:#79d7bd; stroke:none;" d="M384 877L385 878L384 877z"/>
<path style="fill:#85d7f3; stroke:none;" d="M385 877L386 878L385 877z"/>
<path style="fill:#79d7bd; stroke:none;" d="M386 877L387 878L386 877M514 877L515 878L514 877z"/>
<path style="fill:#85d7f3; stroke:none;" d="M515.667 877.333L516.333 877.667L515.667 877.333z"/>
<path style="fill:#79d7bd; stroke:none;" d="M392 878L393 879L392 878z"/>
<path style="fill:#85d7f3; stroke:none;" d="M393 878L394 879L393 878M507 878L508 879L507 878z"/>
<path style="fill:#79d7bd; stroke:none;" d="M508 878L509 879L508 878z"/>
<path style="fill:#85d7f3; stroke:none;" d="M509 878L510 879L509 878M400 879L401 880L400 879z"/>
<path style="fill:#79d7bd; stroke:none;" d="M401.667 879.333L402.333 879.667L401.667 879.333M499 879L500 880L499 879z"/>
<path style="fill:#85d7f3; stroke:none;" d="M500 879L500 880L503 880L500 879M408 880L409 881L408 880z"/>
<path style="fill:#79d7bd; stroke:none;" d="M409.667 880.333L410.333 880.667L409.667 880.333z"/>
<path style="fill:#85d7f3; stroke:none;" d="M411.667 880.333L412.333 880.667L411.667 880.333z"/>
<path style="fill:#79d7bd; stroke:none;" d="M488 880L489 881L488 880z"/>
<path style="fill:#85d7f3; stroke:none;" d="M489 880L489 881L493 881L489 880z"/>
<path style="fill:#79d7bd; stroke:none;" d="M419 881L420 882L419 881z"/>
<path style="fill:#85d7f3; stroke:none;" d="M422.667 881.333L423.333 881.667L422.667 881.333z"/>
<path style="fill:#79d7bd; stroke:none;" d="M424.667 881.333L425.333 881.667L424.667 881.333M427 881L428 882L427 881M474 881L475 882L474 881M476.667 881.333L477.333 881.667L476.667 881.333z"/>
<path style="fill:#85d7f3; stroke:none;" d="M478.667 881.333L479.333 881.667L478.667 881.333M443 882L444 883L443 882z"/>
<path style="fill:#79d7bd; stroke:none;" d="M445 882L446 883L445 882z"/>
<path style="fill:#85d7f3; stroke:none;" d="M446 882L447 883L446 882z"/>
<path style="fill:#79d7bd; stroke:none;" d="M447 882L448 883L447 882z"/>
<path style="fill:#85d7f3; stroke:none;" d="M448 882L449 883L448 882z"/>
<path style="fill:#79d7bd; stroke:none;" d="M449 882L450 883L449 882z"/>
<path style="fill:#85d7f3; stroke:none;" d="M451 882L452 883L451 882M453 882L454 883L453 882M455 882L456 883L455 882z"/>
</svg>
